<svg width="257" height="27" viewBox="0 0 257 27" fill="none" xmlns="http://www.w3.org/2000/svg">
<g filter="url(#filter0_d_613_14402)">
<path d="M226.359 20H30.0317C16.5869 20 16.9095 0.0152438 3.80292 5.13195e-05C3.19224 4.8893e-05 3.16682 4.5991e-05 3.78789 4.25653e-05C3.79291 4.25377e-05 3.79791 4.5515e-05 3.80292 5.13195e-05C9.96421 7.58007e-05 75.7006 5.1886e-05 138.149 2.91673e-05L252.87 1.37564e-05C239.614 7.39814e-05 239.614 20 226.359 20Z" fill="#0A0A0A"/>
</g>
<path d="M115.381 6H120.256L119.356 6.66661H116.233L115.381 6Z" fill="#ACACAC"/>
<path d="M116.091 9.66724H119.498L120.161 10.0005L119.498 10.3338H116.091L115.475 10.0005L116.091 9.66724Z" fill="#0E0E0E"/>
<path d="M115.333 9.9165L115.333 6.16683L116.091 6.79178L116.091 9.49987L115.333 9.9165Z" fill="#ACACAC"/>
<path d="M120.256 6.20898L120.256 9.91699L119.498 9.50036L119.498 6.79227L120.256 6.20898Z" fill="#ACACAC"/>
<path d="M120.066 14L115.523 14L116.233 13.3334L119.356 13.3334L120.066 14Z" fill="#ACACAC"/>
<path d="M120.256 10.1255L120.256 13.9168L119.498 13.2502L119.498 10.5005L120.256 10.1255Z" fill="#ACACAC"/>
<path d="M115.333 13.9153L115.333 10.0823L116.091 10.4989L116.091 13.207L115.333 13.9153Z" fill="#ACACAC"/>
<path d="M121.439 6H126.314L125.415 6.66661H122.291L121.439 6Z" fill="#ACACAC"/>
<path d="M122.149 9.66724H125.557L126.219 10.0005L125.557 10.3338H122.149L121.534 10.0005L122.149 9.66724Z" fill="#ACACAC"/>
<path d="M121.392 9.9165L121.392 6.16683L122.149 6.79178L122.149 9.49987L121.392 9.9165Z" fill="#ACACAC"/>
<path d="M126.314 6.20898L126.314 9.91699L125.557 9.50036L125.557 6.79227L126.314 6.20898Z" fill="#161616"/>
<path d="M126.125 14L121.581 14L122.291 13.3334L125.415 13.3334L126.125 14Z" fill="#ACACAC"/>
<path d="M126.314 10.1255L126.314 13.9168L125.557 13.2502L125.557 10.5005L126.314 10.1255Z" fill="#ACACAC"/>
<path d="M121.392 13.9153L121.392 10.0823L122.149 10.4989L122.149 13.207L121.392 13.9153Z" fill="#ACACAC"/>
<path d="M129.58 6H134.455L133.556 6.66661H130.432L129.58 6Z" fill="#ACACAC"/>
<path d="M130.29 9.66724H133.698L134.36 10.0005L133.698 10.3338H130.29L129.675 10.0005L130.29 9.66724Z" fill="#161616"/>
<path d="M129.533 9.9165L129.533 6.16683L130.29 6.79178L130.29 9.49987L129.533 9.9165Z" fill="#ACACAC"/>
<path d="M134.455 6.20898L134.455 9.91699L133.698 9.50036L133.698 6.79227L134.455 6.20898Z" fill="#ACACAC"/>
<path d="M134.266 14L129.722 14L130.432 13.3334L133.556 13.3334L134.266 14Z" fill="#ACACAC"/>
<path d="M134.455 10.1255L134.455 13.9168L133.698 13.2502L133.698 10.5005L134.455 10.1255Z" fill="#ACACAC"/>
<path d="M129.533 13.9153L129.533 10.0823L130.29 10.4989L130.29 13.207L129.533 13.9153Z" fill="#ACACAC"/>
<path d="M135.638 6H140.513L139.614 6.66661H136.49L135.638 6Z" fill="#161616"/>
<path d="M136.348 9.66724H139.756L140.419 10.0005L139.756 10.3338H136.348L135.733 10.0005L136.348 9.66724Z" fill="#ACACAC"/>
<path d="M135.591 9.9165L135.591 6.16683L136.348 6.79178L136.348 9.49987L135.591 9.9165Z" fill="#ACACAC"/>
<path d="M140.513 6.20898L140.513 9.91699L139.756 9.50036L139.756 6.79227L140.513 6.20898Z" fill="#ACACAC"/>
<path d="M140.324 14L135.78 14L136.49 13.3334L139.614 13.3334L140.324 14Z" fill="#161616"/>
<path d="M140.513 10.1255L140.513 13.9168L139.756 13.2502L139.756 10.5005L140.513 10.1255Z" fill="#ACACAC"/>
<path d="M135.591 13.9153L135.591 10.0823L136.348 10.4989L136.348 13.207L135.591 13.9153Z" fill="#161616"/>
<rect x="127.45" y="8.91553" width="0.946613" height="0.83326" fill="#ACACAC"/>
<rect x="127.45" y="10.4167" width="0.946613" height="0.83326" fill="#ACACAC"/>
<defs>
<filter id="filter0_d_613_14402" x="4.07696e-05" y="0" width="256.203" height="26.6667" filterUnits="userSpaceOnUse" color-interpolation-filters="sRGB">
<feFlood flood-opacity="0" result="BackgroundImageFix"/>
<feColorMatrix in="SourceAlpha" type="matrix" values="0 0 0 0 0 0 0 0 0 0 0 0 0 0 0 0 0 0 127 0" result="hardAlpha"/>
<feOffset dy="3.33333"/>
<feGaussianBlur stdDeviation="1.66667"/>
<feComposite in2="hardAlpha" operator="out"/>
<feColorMatrix type="matrix" values="0 0 0 0 0 0 0 0 0 0 0 0 0 0 0 0 0 0 0.25 0"/>
<feBlend mode="normal" in2="BackgroundImageFix" result="effect1_dropShadow_613_14402"/>
<feBlend mode="normal" in="SourceGraphic" in2="effect1_dropShadow_613_14402" result="shape"/>
</filter>
</defs>
</svg>
