<svg width="127" height="30" viewBox="0 0 127 30" fill="none" xmlns="http://www.w3.org/2000/svg">
<g filter="url(#filter0_d_735_22680)">
<path d="M15.2285 18V10.9541H16.249L18.6611 16.833H18.7393L21.1514 10.9541H22.1719V18H21.3516V12.6191H20.9219L21.9082 11.1494L19.0713 18H18.3291L15.4971 11.1494L16.4785 12.6191H16.0488V18H15.2285ZM26.0244 18.0928C25.5264 18.0928 25.0951 17.9837 24.7305 17.7656C24.3691 17.5443 24.0892 17.2301 23.8906 16.8232C23.6953 16.4163 23.5977 15.9329 23.5977 15.373V15.3633C23.5977 14.8001 23.6953 14.3151 23.8906 13.9082C24.0892 13.5013 24.3691 13.1888 24.7305 12.9707C25.0951 12.7526 25.5264 12.6436 26.0244 12.6436C26.5257 12.6436 26.957 12.7526 27.3184 12.9707C27.6797 13.1888 27.958 13.5013 28.1533 13.9082C28.3519 14.3151 28.4512 14.8001 28.4512 15.3633V15.373C28.4512 15.9329 28.3519 16.4163 28.1533 16.8232C27.958 17.2301 27.6797 17.5443 27.3184 17.7656C26.957 17.9837 26.5257 18.0928 26.0244 18.0928ZM26.0244 17.3408C26.3564 17.3408 26.638 17.2627 26.8691 17.1064C27.1003 16.9502 27.276 16.7256 27.3965 16.4326C27.5202 16.1396 27.582 15.7865 27.582 15.373V15.3633C27.582 14.9466 27.5202 14.5918 27.3965 14.2988C27.276 14.0059 27.1003 13.7829 26.8691 13.6299C26.638 13.4736 26.3564 13.3955 26.0244 13.3955C25.6924 13.3955 25.4108 13.4736 25.1797 13.6299C24.9486 13.7829 24.7712 14.0059 24.6475 14.2988C24.527 14.5918 24.4668 14.9466 24.4668 15.3633V15.373C24.4668 15.7865 24.527 16.1396 24.6475 16.4326C24.7712 16.7256 24.9486 16.9502 25.1797 17.1064C25.4108 17.2627 25.6924 17.3408 26.0244 17.3408ZM29.7695 18V12.7363H30.6191V13.5273H30.6973C30.8307 13.2474 31.0228 13.0309 31.2734 12.8779C31.5241 12.7217 31.8431 12.6436 32.2305 12.6436C32.8229 12.6436 33.277 12.8128 33.5928 13.1514C33.9118 13.4867 34.0713 13.9668 34.0713 14.5918V18H33.2217V14.7969C33.2217 14.3216 33.1208 13.9701 32.9189 13.7422C32.7204 13.5111 32.4111 13.3955 31.9912 13.3955C31.7113 13.3955 31.4688 13.4557 31.2637 13.5762C31.0586 13.6966 30.8991 13.8675 30.7852 14.0889C30.6745 14.3102 30.6191 14.5755 30.6191 14.8848V18H29.7695ZM40.0381 18.166C39.7321 18.166 39.4603 18.1221 39.2227 18.0342C38.985 17.9463 38.7832 17.8226 38.6172 17.6631C38.4512 17.5036 38.321 17.3164 38.2266 17.1016C38.1322 16.8867 38.0752 16.6523 38.0557 16.3984L38.0508 16.3301H38.9297L38.9346 16.3789C38.9541 16.5547 39.0062 16.7174 39.0908 16.8672C39.1755 17.0137 39.2959 17.1325 39.4521 17.2236C39.6084 17.3115 39.8021 17.3555 40.0332 17.3555C40.4238 17.3555 40.7217 17.2432 40.9268 17.0186C41.1318 16.7907 41.2344 16.4619 41.2344 16.0322V10.9541H42.1133V16.042C42.1133 16.4847 42.0303 16.8656 41.8643 17.1846C41.7015 17.5003 41.4655 17.7428 41.1562 17.9121C40.847 18.0814 40.4743 18.166 40.0381 18.166ZM45.5654 18.0928C45.1683 18.0928 44.8346 18.0179 44.5645 17.8682C44.2943 17.7152 44.0908 17.4938 43.9541 17.2041C43.8206 16.9111 43.7539 16.5579 43.7539 16.1445V12.7363H44.6035V15.9395C44.6035 16.4115 44.6947 16.763 44.877 16.9941C45.0625 17.2253 45.3652 17.3408 45.7852 17.3408C46.0163 17.3408 46.2197 17.3066 46.3955 17.2383C46.5745 17.1699 46.7243 17.0723 46.8447 16.9453C46.9652 16.8151 47.0547 16.6589 47.1133 16.4766C47.1751 16.291 47.2061 16.0827 47.2061 15.8516V12.7363H48.0557V18H47.2061V17.2139H47.1279C47.0433 17.3994 46.9277 17.5589 46.7812 17.6924C46.6348 17.8226 46.459 17.9219 46.2539 17.9902C46.0521 18.0586 45.8226 18.0928 45.5654 18.0928ZM49.6426 18V12.7363H50.4922V13.5273H50.5703C50.7038 13.2474 50.8958 13.0309 51.1465 12.8779C51.3971 12.7217 51.7161 12.6436 52.1035 12.6436C52.696 12.6436 53.1501 12.8128 53.4658 13.1514C53.7848 13.4867 53.9443 13.9668 53.9443 14.5918V18H53.0947V14.7969C53.0947 14.3216 52.9938 13.9701 52.792 13.7422C52.5934 13.5111 52.2842 13.3955 51.8643 13.3955C51.5843 13.3955 51.3418 13.4557 51.1367 13.5762C50.9316 13.6966 50.7721 13.8675 50.6582 14.0889C50.5475 14.3102 50.4922 14.5755 50.4922 14.8848V18H49.6426ZM60.0137 18V11.9307H59.9355L58.1436 13.2295V12.3018L60.0186 10.9541H60.8926V18H60.0137ZM65.2871 18.166C64.7663 18.166 64.3203 18.0163 63.9492 17.7168C63.5814 17.4173 63.2982 16.9925 63.0996 16.4424C62.901 15.889 62.8018 15.2347 62.8018 14.4795V14.4697C62.8018 13.7145 62.901 13.0618 63.0996 12.5117C63.2982 11.9616 63.5814 11.5368 63.9492 11.2373C64.3203 10.9378 64.7663 10.7881 65.2871 10.7881C65.8079 10.7881 66.2539 10.9378 66.625 11.2373C66.9961 11.5368 67.2809 11.9616 67.4795 12.5117C67.6813 13.0618 67.7822 13.7145 67.7822 14.4697V14.4795C67.7822 15.2347 67.6813 15.889 67.4795 16.4424C67.2809 16.9925 66.9961 17.4173 66.625 17.7168C66.2539 18.0163 65.8079 18.166 65.2871 18.166ZM65.2871 17.3994C65.6257 17.3994 65.9137 17.2806 66.1514 17.043C66.3923 16.8053 66.5762 16.4684 66.7031 16.0322C66.8333 15.596 66.8984 15.0785 66.8984 14.4795V14.4697C66.8984 13.8708 66.8333 13.3548 66.7031 12.9219C66.5762 12.4857 66.3923 12.1504 66.1514 11.916C65.9137 11.6784 65.6257 11.5596 65.2871 11.5596C64.9518 11.5596 64.6637 11.6784 64.4229 11.916C64.1852 12.1504 64.0029 12.4857 63.876 12.9219C63.749 13.3548 63.6855 13.8708 63.6855 14.4697V14.4795C63.6855 15.0785 63.749 15.596 63.876 16.0322C64.0029 16.4684 64.1852 16.8053 64.4229 17.043C64.6637 17.2806 64.9518 17.3994 65.2871 17.3994ZM77.1572 10.7881C77.4795 10.7881 77.7969 10.8499 78.1094 10.9736C78.4251 11.0973 78.71 11.2975 78.9639 11.5742C79.221 11.8509 79.4261 12.2171 79.5791 12.6729C79.7321 13.1253 79.8086 13.6836 79.8086 14.3477V14.3574C79.8086 15.1582 79.7012 15.8434 79.4863 16.4131C79.2715 16.9795 78.9622 17.4141 78.5586 17.7168C78.1549 18.0163 77.6683 18.166 77.0986 18.166C76.7048 18.166 76.3483 18.0944 76.0293 17.9512C75.7135 17.8047 75.4499 17.6012 75.2383 17.3408C75.0267 17.0804 74.8802 16.7777 74.7988 16.4326L74.7842 16.3691H75.668L75.6875 16.4229C75.7591 16.6182 75.86 16.7874 75.9902 16.9307C76.1237 17.0739 76.2832 17.1846 76.4688 17.2627C76.6576 17.3408 76.8708 17.3799 77.1084 17.3799C77.5348 17.3799 77.8815 17.2562 78.1484 17.0088C78.4154 16.7581 78.6139 16.4261 78.7441 16.0127C78.8743 15.5993 78.9476 15.1484 78.9639 14.6602C78.9671 14.6146 78.9688 14.5706 78.9688 14.5283C78.9688 14.4827 78.9688 14.4388 78.9688 14.3965L78.7588 13.2246C78.7588 12.9154 78.6872 12.6354 78.5439 12.3848C78.404 12.1341 78.2135 11.9355 77.9727 11.7891C77.735 11.6393 77.4665 11.5645 77.167 11.5645C76.874 11.5645 76.6071 11.6377 76.3662 11.7842C76.1253 11.9274 75.9333 12.1227 75.79 12.3701C75.6468 12.6143 75.5752 12.8893 75.5752 13.1953V13.2051C75.5752 13.5176 75.6436 13.7959 75.7803 14.04C75.917 14.2809 76.1042 14.4714 76.3418 14.6113C76.5794 14.748 76.8496 14.8164 77.1523 14.8164C77.4583 14.8164 77.7318 14.748 77.9727 14.6113C78.2135 14.4746 78.404 14.2874 78.5439 14.0498C78.6872 13.8089 78.7588 13.5355 78.7588 13.2295V13.2246H79.0469V14.4941H78.876C78.7913 14.6862 78.6611 14.8652 78.4854 15.0312C78.3128 15.1973 78.1012 15.3307 77.8506 15.4316C77.6032 15.5326 77.32 15.583 77.001 15.583C76.5615 15.583 76.1676 15.4805 75.8193 15.2754C75.471 15.0703 75.196 14.7904 74.9941 14.4355C74.7923 14.0775 74.6914 13.6738 74.6914 13.2246V13.2148C74.6914 12.7461 74.7972 12.3294 75.0088 11.9648C75.2236 11.597 75.5166 11.3089 75.8877 11.1006C76.262 10.8923 76.6852 10.7881 77.1572 10.7881ZM81.918 16.999C81.7454 16.999 81.5957 16.9372 81.4688 16.8135C81.3451 16.6865 81.2832 16.5368 81.2832 16.3643C81.2832 16.1885 81.3451 16.0387 81.4688 15.915C81.5957 15.7913 81.7454 15.7295 81.918 15.7295C82.0938 15.7295 82.2435 15.7913 82.3672 15.915C82.4909 16.0387 82.5527 16.1885 82.5527 16.3643C82.5527 16.5368 82.4909 16.6865 82.3672 16.8135C82.2435 16.9372 82.0938 16.999 81.918 16.999ZM81.918 13.2197C81.7454 13.2197 81.5957 13.1579 81.4688 13.0342C81.3451 12.9072 81.2832 12.7575 81.2832 12.585C81.2832 12.4092 81.3451 12.2594 81.4688 12.1357C81.5957 12.012 81.7454 11.9502 81.918 11.9502C82.0938 11.9502 82.2435 12.012 82.3672 12.1357C82.4909 12.2594 82.5527 12.4092 82.5527 12.585C82.5527 12.7575 82.4909 12.9072 82.3672 13.0342C82.2435 13.1579 82.0938 13.2197 81.918 13.2197ZM87.4062 18V16.54H83.9736V15.7393C84.1657 15.4202 84.361 15.098 84.5596 14.7725C84.7581 14.4437 84.9583 14.1165 85.1602 13.791C85.3652 13.4622 85.5703 13.1367 85.7754 12.8145C85.9805 12.4922 86.1839 12.1748 86.3857 11.8623C86.5908 11.5498 86.7926 11.2471 86.9912 10.9541H88.2656V15.7539H89.2666V16.54H88.2656V18H87.4062ZM84.8721 15.7588H87.4111V11.7695H87.3525C87.193 12.0072 87.0303 12.2546 86.8643 12.5117C86.6982 12.7656 86.529 13.026 86.3564 13.293C86.1872 13.5599 86.0179 13.8285 85.8486 14.0986C85.6794 14.3688 85.5117 14.639 85.3457 14.9092C85.1829 15.1761 85.0251 15.4398 84.8721 15.7002V15.7588ZM92.25 18V11.9307H92.1719L90.3799 13.2295V12.3018L92.2549 10.9541H93.1289V18H92.25ZM97.5283 18L100.126 10.9541H100.8V12.0918H100.521L98.4512 18H97.5283ZM98.7051 15.9834L98.9785 15.2363H102.162L102.436 15.9834H98.7051ZM102.67 18L100.6 12.0918V10.9541H100.995L103.593 18H102.67ZM104.828 18V10.9541H105.849L108.261 16.833H108.339L110.751 10.9541H111.771V18H110.951V12.6191H110.521L111.508 11.1494L108.671 18H107.929L105.097 11.1494L106.078 12.6191H105.648V18H104.828Z" fill="white"/>
</g>
<defs>
<filter id="filter0_d_735_22680" x="10.2285" y="6.62142" width="106.543" height="17.3779" filterUnits="userSpaceOnUse" color-interpolation-filters="sRGB">
<feFlood flood-opacity="0" result="BackgroundImageFix"/>
<feColorMatrix in="SourceAlpha" type="matrix" values="0 0 0 0 0 0 0 0 0 0 0 0 0 0 0 0 0 0 127 0" result="hardAlpha"/>
<feOffset dy="0.833333"/>
<feGaussianBlur stdDeviation="2.5"/>
<feComposite in2="hardAlpha" operator="out"/>
<feColorMatrix type="matrix" values="0 0 0 0 0.8 0 0 0 0 0.8 0 0 0 0 0.8 0 0 0 1 0"/>
<feBlend mode="plus-darker" in2="BackgroundImageFix" result="effect1_dropShadow_735_22680"/>
<feBlend mode="normal" in="SourceGraphic" in2="effect1_dropShadow_735_22680" result="shape"/>
</filter>
</defs>
</svg>
