<svg width="250" height="20" viewBox="0 0 250 20" fill="none" xmlns="http://www.w3.org/2000/svg">
<g filter="url(#filter0_iiii_717_2241)">
<rect x="1.5" width="247" height="20" rx="10" fill="black" fill-opacity="0.15"/>
<g filter="url(#filter1_d_717_2241)">
<path d="M11.8862 8.96582C11.8862 8.49707 11.9741 8.05615 12.1499 7.64307C12.3286 7.22998 12.5747 6.86816 12.8882 6.55762C13.2017 6.24414 13.5635 5.99951 13.9736 5.82373C14.3867 5.64502 14.8276 5.55566 15.2964 5.55566C15.7651 5.55566 16.2046 5.64502 16.6147 5.82373C17.0278 5.99951 17.3911 6.24414 17.7046 6.55762C18.0181 6.86816 18.2627 7.22998 18.4385 7.64307C18.6172 8.05615 18.7065 8.49707 18.7065 8.96582C18.7065 9.36719 18.6392 9.74951 18.5044 10.1128C18.3726 10.4761 18.1895 10.8013 17.9551 11.0884L20.2314 13.3823C20.2725 13.4204 20.3032 13.4644 20.3237 13.5142C20.3442 13.564 20.3545 13.6182 20.3545 13.6768C20.3545 13.7529 20.3369 13.8232 20.3018 13.8877C20.2666 13.9551 20.2168 14.0078 20.1523 14.0459C20.0908 14.084 20.019 14.103 19.937 14.103C19.8784 14.103 19.8228 14.0913 19.77 14.0679C19.7202 14.0474 19.6748 14.0181 19.6338 13.98L17.3442 11.6816C17.0601 11.8984 16.7437 12.0684 16.395 12.1914C16.0464 12.3145 15.6802 12.376 15.2964 12.376C14.8276 12.376 14.3867 12.2881 13.9736 12.1123C13.5635 11.9336 13.2017 11.6875 12.8882 11.374C12.5747 11.0605 12.3286 10.6987 12.1499 10.2886C11.9741 9.87549 11.8862 9.43457 11.8862 8.96582ZM12.4575 8.96582C12.4575 9.35547 12.5308 9.72314 12.6772 10.0688C12.8237 10.4116 13.0273 10.7134 13.2881 10.9741C13.5488 11.2319 13.8506 11.4355 14.1934 11.585C14.5361 11.7314 14.9038 11.8047 15.2964 11.8047C15.689 11.8047 16.0566 11.7314 16.3994 11.585C16.7422 11.4355 17.0425 11.2319 17.3003 10.9741C17.561 10.7134 17.7646 10.4116 17.9111 10.0688C18.0605 9.72314 18.1353 9.35547 18.1353 8.96582C18.1353 8.57324 18.0605 8.20557 17.9111 7.86279C17.7646 7.52002 17.561 7.21826 17.3003 6.95752C17.0425 6.69678 16.7422 6.49316 16.3994 6.34668C16.0566 6.19727 15.689 6.12256 15.2964 6.12256C14.9038 6.12256 14.5361 6.19727 14.1934 6.34668C13.8506 6.49316 13.5488 6.69678 13.2881 6.95752C13.0273 7.21826 12.8237 7.52002 12.6772 7.86279C12.5308 8.20557 12.4575 8.57324 12.4575 8.96582Z" fill="white" fill-opacity="0.96"/>
<path d="M34.0107 13V12.4092H36.1494C36.7646 12.4092 37.2253 12.2904 37.5312 12.0527C37.8372 11.8118 37.9902 11.4766 37.9902 11.0469V11.0371C37.9902 10.7409 37.9154 10.4902 37.7656 10.2852C37.6159 10.0801 37.3994 9.92546 37.1162 9.82129C36.833 9.71387 36.4912 9.66016 36.0908 9.66016H34.0107V9.08398H35.9199C36.4668 9.08398 36.8883 8.97331 37.1846 8.75195C37.484 8.52734 37.6338 8.21159 37.6338 7.80469V7.79492C37.6338 7.4043 37.4954 7.09831 37.2188 6.87695C36.9453 6.6556 36.5645 6.54492 36.0762 6.54492H34.0107V5.9541H36.208C36.641 5.9541 37.0137 6.02572 37.3262 6.16895C37.6387 6.31217 37.8796 6.514 38.0488 6.77441C38.2214 7.03158 38.3076 7.33757 38.3076 7.69238V7.70215C38.3076 7.95931 38.2507 8.19857 38.1367 8.41992C38.026 8.64128 37.8747 8.82682 37.6826 8.97656C37.4906 9.1263 37.2676 9.22559 37.0137 9.27441V9.32812C37.3359 9.36719 37.6208 9.46322 37.8682 9.61621C38.1188 9.76595 38.3141 9.96452 38.4541 10.2119C38.5973 10.4561 38.6689 10.7409 38.6689 11.0664V11.0762C38.6689 11.4733 38.5745 11.8167 38.3857 12.1064C38.2002 12.3929 37.9268 12.6143 37.5654 12.7705C37.2074 12.9235 36.7663 13 36.2422 13H34.0107ZM33.6787 13V5.9541H34.3428V13H33.6787ZM41.8477 13.0879C41.457 13.0879 41.1234 13.0114 40.8467 12.8584C40.57 12.7054 40.36 12.484 40.2168 12.1943C40.0736 11.9046 40.002 11.5596 40.002 11.1592V7.74121H40.6465V10.998C40.6465 11.4896 40.7588 11.8656 40.9834 12.126C41.2113 12.3864 41.5514 12.5166 42.0039 12.5166C42.248 12.5166 42.4661 12.4775 42.6582 12.3994C42.8535 12.3213 43.0195 12.2106 43.1562 12.0674C43.293 11.9209 43.3955 11.7467 43.4639 11.5449C43.5355 11.3431 43.5713 11.1169 43.5713 10.8662V7.74121H44.2158V13H43.5713V12.082H43.5127C43.4281 12.2904 43.3076 12.471 43.1514 12.624C42.9951 12.7738 42.8063 12.8893 42.585 12.9707C42.3669 13.0488 42.1211 13.0879 41.8477 13.0879ZM47.6338 13.0879C47.2529 13.0879 46.9144 13.0309 46.6182 12.917C46.3219 12.7998 46.0843 12.637 45.9053 12.4287C45.7262 12.2171 45.6188 11.9681 45.583 11.6816H46.2422C46.3138 11.9453 46.4717 12.1553 46.7158 12.3115C46.96 12.4678 47.2725 12.5459 47.6533 12.5459C47.9105 12.5459 48.14 12.5052 48.3418 12.4238C48.5469 12.3424 48.708 12.2301 48.8252 12.0869C48.9456 11.9437 49.0059 11.7809 49.0059 11.5986V11.5889C49.0059 11.361 48.9196 11.1755 48.7471 11.0322C48.5745 10.889 48.2962 10.7718 47.9121 10.6807L47.1846 10.5098C46.859 10.4316 46.5889 10.334 46.374 10.2168C46.1624 10.0964 46.0046 9.94824 45.9004 9.77246C45.7995 9.59342 45.749 9.38184 45.749 9.1377V9.13281C45.749 8.84961 45.832 8.5957 45.998 8.37109C46.1673 8.14648 46.3952 7.9707 46.6816 7.84375C46.9714 7.7168 47.292 7.65332 47.6436 7.65332C47.9951 7.65332 48.3092 7.70866 48.5859 7.81934C48.8626 7.93001 49.0856 8.08789 49.2549 8.29297C49.4274 8.49805 49.5348 8.73893 49.5771 9.01562H48.9424C48.887 8.77148 48.7438 8.57454 48.5127 8.4248C48.2816 8.27181 47.9902 8.19531 47.6387 8.19531C47.4108 8.19531 47.2025 8.23438 47.0137 8.3125C46.8281 8.39062 46.68 8.49805 46.5693 8.63477C46.4587 8.77148 46.4033 8.92773 46.4033 9.10352V9.11328C46.4033 9.25651 46.4391 9.38184 46.5107 9.48926C46.5856 9.59342 46.6979 9.68457 46.8477 9.7627C47.0007 9.83757 47.1943 9.90267 47.4287 9.95801L48.1514 10.1338C48.6592 10.2542 49.0384 10.4251 49.2891 10.6465C49.5397 10.8646 49.665 11.1624 49.665 11.54V11.5498C49.665 11.8525 49.5739 12.1195 49.3916 12.3506C49.2126 12.5817 48.9701 12.7624 48.6641 12.8926C48.3613 13.0228 48.0179 13.0879 47.6338 13.0879ZM53.1416 13.0879C52.6566 13.0879 52.2367 12.9772 51.8818 12.7559C51.527 12.5312 51.252 12.2139 51.0566 11.8037C50.8646 11.3936 50.7686 10.9118 50.7686 10.3584V10.3486C50.7686 9.7985 50.8646 9.32324 51.0566 8.92285C51.2487 8.51921 51.5221 8.20671 51.877 7.98535C52.235 7.764 52.6549 7.65332 53.1367 7.65332C53.5371 7.65332 53.8887 7.72493 54.1914 7.86816C54.4941 8.00814 54.7383 8.2002 54.9238 8.44434C55.1126 8.68848 55.2347 8.96354 55.29 9.26953V9.28906H54.6504V9.2793C54.5723 8.97656 54.4014 8.72591 54.1377 8.52734C53.874 8.32552 53.5404 8.22461 53.1367 8.22461C52.7884 8.22461 52.4857 8.3125 52.2285 8.48828C51.9714 8.66081 51.7728 8.90658 51.6328 9.22559C51.4928 9.54134 51.4229 9.91569 51.4229 10.3486V10.3584C51.4229 10.7946 51.4928 11.1755 51.6328 11.501C51.776 11.8232 51.9762 12.0739 52.2334 12.2529C52.4906 12.4287 52.7917 12.5166 53.1367 12.5166C53.5273 12.5166 53.8512 12.4287 54.1084 12.2529C54.3688 12.0771 54.5462 11.8298 54.6406 11.5107L54.6504 11.4863L55.2852 11.4814L55.2803 11.5254C55.2119 11.8314 55.085 12.1032 54.8994 12.3408C54.7171 12.5752 54.4779 12.7591 54.1816 12.8926C53.8887 13.0228 53.542 13.0879 53.1416 13.0879ZM58.0781 13.0879C57.7396 13.0879 57.4385 13.026 57.1748 12.9023C56.9111 12.7754 56.7028 12.5964 56.5498 12.3652C56.3968 12.1341 56.3203 11.8623 56.3203 11.5498V11.54C56.3203 11.2373 56.3936 10.9769 56.54 10.7588C56.6865 10.5374 56.9014 10.3649 57.1846 10.2412C57.4678 10.1143 57.8112 10.0378 58.2148 10.0117L60.1777 9.88477V10.4072L58.3027 10.5342C57.8535 10.5635 57.5199 10.6628 57.3018 10.832C57.0869 10.998 56.9795 11.2308 56.9795 11.5303V11.54C56.9795 11.8428 57.0934 12.0837 57.3213 12.2627C57.5492 12.4385 57.8421 12.5264 58.2002 12.5264C58.516 12.5264 58.7975 12.4613 59.0449 12.3311C59.2956 12.1976 59.4941 12.0186 59.6406 11.7939C59.7871 11.5693 59.8604 11.3187 59.8604 11.042V9.41113C59.8604 9.02376 59.7464 8.72917 59.5186 8.52734C59.2907 8.32552 58.9635 8.22461 58.5371 8.22461C58.179 8.22461 57.8812 8.2946 57.6436 8.43457C57.4059 8.57454 57.2513 8.77637 57.1797 9.04004L57.1748 9.0498H56.5303L56.5352 9.03027C56.5807 8.74707 56.6947 8.50293 56.877 8.29785C57.0592 8.09277 57.2936 7.9349 57.5801 7.82422C57.8665 7.71029 58.1921 7.65332 58.5566 7.65332C58.9701 7.65332 59.3216 7.72331 59.6113 7.86328C59.901 8 60.1208 8.19857 60.2705 8.45898C60.4235 8.7194 60.5 9.03516 60.5 9.40625V13H59.8604V12.0918H59.7969C59.6927 12.3001 59.556 12.4792 59.3867 12.6289C59.2174 12.7754 59.0221 12.8893 58.8008 12.9707C58.5794 13.0488 58.3385 13.0879 58.0781 13.0879ZM62.126 13V7.74121H62.7705V8.60547H62.8291C62.9333 8.30599 63.109 8.07324 63.3564 7.90723C63.6038 7.73796 63.9049 7.65332 64.2598 7.65332C64.3574 7.65332 64.4486 7.6582 64.5332 7.66797C64.6178 7.67773 64.6911 7.68913 64.7529 7.70215V8.33203C64.6618 8.30924 64.5706 8.29297 64.4795 8.2832C64.3916 8.27018 64.2956 8.26367 64.1914 8.26367C63.918 8.26367 63.6738 8.32715 63.459 8.4541C63.2474 8.5778 63.0798 8.7487 62.9561 8.9668C62.8324 9.1849 62.7705 9.43555 62.7705 9.71875V13H62.126Z" fill="white" fill-opacity="0.96"/>
</g>
</g>
<defs>
<filter id="filter0_iiii_717_2241" x="1.5" y="-0.380108" width="247.76" height="21.5204" filterUnits="userSpaceOnUse" color-interpolation-filters="sRGB">
<feFlood flood-opacity="0" result="BackgroundImageFix"/>
<feBlend mode="normal" in="SourceGraphic" in2="BackgroundImageFix" result="shape"/>
<feColorMatrix in="SourceAlpha" type="matrix" values="0 0 0 0 0 0 0 0 0 0 0 0 0 0 0 0 0 0 127 0" result="hardAlpha"/>
<feOffset dx="0.760216" dy="1.14032"/>
<feGaussianBlur stdDeviation="1.52043"/>
<feComposite in2="hardAlpha" operator="arithmetic" k2="-1" k3="1"/>
<feColorMatrix type="matrix" values="0 0 0 0 0 0 0 0 0 0 0 0 0 0 0 0 0 0 0.1 0"/>
<feBlend mode="normal" in2="shape" result="effect1_innerShadow_717_2241"/>
<feColorMatrix in="SourceAlpha" type="matrix" values="0 0 0 0 0 0 0 0 0 0 0 0 0 0 0 0 0 0 127 0" result="hardAlpha"/>
<feOffset dx="0.760216" dy="1.14032"/>
<feGaussianBlur stdDeviation="1.52043"/>
<feComposite in2="hardAlpha" operator="arithmetic" k2="-1" k3="1"/>
<feColorMatrix type="matrix" values="0 0 0 0 0 0 0 0 0 0 0 0 0 0 0 0 0 0 0.08 0"/>
<feBlend mode="overlay" in2="effect1_innerShadow_717_2241" result="effect2_innerShadow_717_2241"/>
<feColorMatrix in="SourceAlpha" type="matrix" values="0 0 0 0 0 0 0 0 0 0 0 0 0 0 0 0 0 0 127 0" result="hardAlpha"/>
<feOffset dy="-0.380108"/>
<feGaussianBlur stdDeviation="0.380108"/>
<feComposite in2="hardAlpha" operator="arithmetic" k2="-1" k3="1"/>
<feColorMatrix type="matrix" values="0 0 0 0 1 0 0 0 0 1 0 0 0 0 1 0 0 0 0.25 0"/>
<feBlend mode="normal" in2="effect2_innerShadow_717_2241" result="effect3_innerShadow_717_2241"/>
<feColorMatrix in="SourceAlpha" type="matrix" values="0 0 0 0 0 0 0 0 0 0 0 0 0 0 0 0 0 0 127 0" result="hardAlpha"/>
<feOffset dy="-0.380108"/>
<feGaussianBlur stdDeviation="0.380108"/>
<feComposite in2="hardAlpha" operator="arithmetic" k2="-1" k3="1"/>
<feColorMatrix type="matrix" values="0 0 0 0 1 0 0 0 0 1 0 0 0 0 1 0 0 0 0.3 0"/>
<feBlend mode="overlay" in2="effect3_innerShadow_717_2241" result="effect4_innerShadow_717_2241"/>
</filter>
<filter id="filter1_d_717_2241" x="1.50003" y="0.479568" width="247" height="22.0817" filterUnits="userSpaceOnUse" color-interpolation-filters="sRGB">
<feFlood flood-opacity="0" result="BackgroundImageFix"/>
<feColorMatrix in="SourceAlpha" type="matrix" values="0 0 0 0 0 0 0 0 0 0 0 0 0 0 0 0 0 0 127 0" result="hardAlpha"/>
<feOffset dy="1.52043"/>
<feGaussianBlur stdDeviation="1.52043"/>
<feComposite in2="hardAlpha" operator="out"/>
<feColorMatrix type="matrix" values="0 0 0 0 0 0 0 0 0 0 0 0 0 0 0 0 0 0 0.1 0"/>
<feBlend mode="normal" in2="BackgroundImageFix" result="effect1_dropShadow_717_2241"/>
<feBlend mode="normal" in="SourceGraphic" in2="effect1_dropShadow_717_2241" result="shape"/>
</filter>
</defs>
</svg>
