<svg width="48" height="15" viewBox="0 0 48 15" fill="none" xmlns="http://www.w3.org/2000/svg">
<path d="M11.6749 7.949L11.9396 8.1843L12.1488 7.949L11.9396 7.71371L11.6749 7.949ZM8.08269 7.59483C7.88709 7.59483 7.72853 7.7534 7.72853 7.949C7.72853 8.1446 7.88709 8.30317 8.08269 8.30317L8.08269 7.949L8.08269 7.59483ZM10.0784 9.74512L10.3431 9.98041L11.9396 8.1843L11.6749 7.949L11.4102 7.71371L9.81367 9.50982L10.0784 9.74512ZM11.6749 7.949L11.9396 7.71371L10.3431 5.91759L10.0784 6.15288L9.81367 6.38818L11.4102 8.1843L11.6749 7.949ZM11.6749 7.949L11.6749 7.59483L8.08269 7.59483L8.08269 7.949L8.08269 8.30317L11.6749 8.30317L11.6749 7.949Z" fill="#D1D1D1"/>
<path d="M8.98071 10.0331L8.98071 10.2086C8.98071 11.0218 8.98071 11.4284 8.80576 11.747C8.71532 11.9117 8.59304 12.0567 8.44602 12.1736C8.16161 12.3999 7.76085 12.4686 6.95933 12.606C5.32168 12.8868 4.50286 13.0271 3.887 12.7264C3.57182 12.5726 3.29964 12.3431 3.09472 12.0584C2.6943 11.5022 2.6943 10.6715 2.6943 9.00992L2.6943 6.8877C2.6943 5.22616 2.6943 4.3954 3.09472 3.83919C3.29964 3.55455 3.57183 3.32506 3.887 3.17118C4.50286 2.8705 5.32168 3.01087 6.95933 3.29161C7.76085 3.42901 8.16161 3.49771 8.44602 3.72397C8.59304 3.84093 8.71533 3.98597 8.80576 4.15063C8.98071 4.46918 8.98071 4.87579 8.98071 5.689L8.98071 5.75792" stroke="#D1D1D1" stroke-width="0.708333"/>
<circle cx="27.5" cy="7.5" r="5.225" stroke="#D1D1D1" stroke-width="0.8"/>
<circle cx="27.5" cy="11.25" r="0.3125" fill="#D1D1D1"/>
<path d="M27.5 10V9.46452C27.5 9.01813 27.7231 8.60127 28.0945 8.35366L28.4686 8.1043C29.0349 7.72677 29.375 7.09119 29.375 6.41059V6.25C29.375 5.21447 28.5355 4.375 27.5 4.375C26.4645 4.375 25.625 5.21447 25.625 6.25" stroke="#D1D1D1" stroke-width="0.8"/>
</svg>
