<svg width="250" height="20" viewBox="0 0 250 20" fill="none" xmlns="http://www.w3.org/2000/svg">
<g filter="url(#filter0_iiii_717_2231)">
<g clip-path="url(#clip0_717_2231)">
<rect x="1.5" width="247" height="20" rx="10" fill="black" fill-opacity="0.15"/>
<g filter="url(#filter1_d_717_2231)">
<path d="M40.9524 13.813C40.5803 13.813 40.321 13.7559 40.1746 13.6416C40.0281 13.5303 39.9548 13.3706 39.9548 13.1626C39.9548 12.8813 40.0413 12.5854 40.2141 12.2749C40.387 11.9644 40.636 11.6743 40.9612 11.4048C41.2864 11.1323 41.6775 10.9111 42.1345 10.7412C42.5945 10.5713 43.1086 10.4863 43.677 10.4863C44.2454 10.4863 44.7581 10.5713 45.2151 10.7412C45.675 10.9111 46.0676 11.1323 46.3928 11.4048C46.718 11.6743 46.967 11.9644 47.1399 12.2749C47.3127 12.5854 47.3992 12.8813 47.3992 13.1626C47.3992 13.3706 47.3259 13.5303 47.1794 13.6416C47.033 13.7559 46.7722 13.813 46.3972 13.813H40.9524ZM43.677 9.71289C43.3518 9.71289 43.0544 9.62646 42.7849 9.45361C42.5154 9.27783 42.2986 9.04346 42.1345 8.75049C41.9734 8.45459 41.8928 8.12354 41.8928 7.75732C41.8928 7.40283 41.9749 7.08057 42.1389 6.79053C42.303 6.49756 42.5198 6.26611 42.7893 6.09619C43.0588 5.92334 43.3547 5.83691 43.677 5.83691C44.0022 5.83691 44.2996 5.92188 44.5691 6.0918C44.8386 6.26172 45.054 6.4917 45.2151 6.78174C45.3792 7.06885 45.4612 7.39258 45.4612 7.75293C45.4612 8.11914 45.3792 8.4502 45.2151 8.74609C45.054 9.04199 44.8386 9.27783 44.5691 9.45361C44.2996 9.62646 44.0022 9.71289 43.677 9.71289ZM36.1799 13.8174C35.8723 13.8174 35.6555 13.7529 35.5295 13.624C35.4036 13.498 35.3406 13.3193 35.3406 13.0879C35.3406 12.7949 35.4167 12.4961 35.5691 12.1914C35.7244 11.8838 35.9441 11.6011 36.2283 11.3433C36.5154 11.0854 36.8567 10.876 37.2522 10.7148C37.6506 10.5537 38.0945 10.4731 38.5837 10.4731C38.9705 10.4731 39.3206 10.5244 39.634 10.627C39.9504 10.7266 40.2273 10.8525 40.4646 11.0049C40.2097 11.207 39.9915 11.4341 39.8098 11.686C39.6282 11.938 39.489 12.1958 39.3923 12.4595C39.2986 12.7202 39.2532 12.9678 39.2561 13.2021C39.262 13.4395 39.3235 13.6445 39.4407 13.8174H36.1799ZM38.5837 9.80957C38.3025 9.80957 38.0432 9.73486 37.8059 9.58545C37.5715 9.43311 37.384 9.22803 37.2434 8.97021C37.1028 8.7124 37.0325 8.42529 37.0325 8.10889C37.0325 7.79834 37.1028 7.51709 37.2434 7.26514C37.387 7.01025 37.5759 6.80811 37.8103 6.65869C38.0476 6.50928 38.3054 6.43457 38.5837 6.43457C38.8621 6.43457 39.1184 6.50928 39.3528 6.65869C39.5901 6.80518 39.7791 7.00439 39.9197 7.25635C40.0632 7.5083 40.135 7.79102 40.135 8.10449C40.135 8.4209 40.0647 8.70947 39.9241 8.97021C39.7834 9.22803 39.5959 9.43311 39.3616 9.58545C39.1272 9.73486 38.8679 9.80957 38.5837 9.80957Z" fill="white" fill-opacity="0.23" style="mix-blend-mode:lighten"/>
<path d="M40.9524 13.813C40.5803 13.813 40.321 13.7559 40.1746 13.6416C40.0281 13.5303 39.9548 13.3706 39.9548 13.1626C39.9548 12.8813 40.0413 12.5854 40.2141 12.2749C40.387 11.9644 40.636 11.6743 40.9612 11.4048C41.2864 11.1323 41.6775 10.9111 42.1345 10.7412C42.5945 10.5713 43.1086 10.4863 43.677 10.4863C44.2454 10.4863 44.7581 10.5713 45.2151 10.7412C45.675 10.9111 46.0676 11.1323 46.3928 11.4048C46.718 11.6743 46.967 11.9644 47.1399 12.2749C47.3127 12.5854 47.3992 12.8813 47.3992 13.1626C47.3992 13.3706 47.3259 13.5303 47.1794 13.6416C47.033 13.7559 46.7722 13.813 46.3972 13.813H40.9524ZM43.677 9.71289C43.3518 9.71289 43.0544 9.62646 42.7849 9.45361C42.5154 9.27783 42.2986 9.04346 42.1345 8.75049C41.9734 8.45459 41.8928 8.12354 41.8928 7.75732C41.8928 7.40283 41.9749 7.08057 42.1389 6.79053C42.303 6.49756 42.5198 6.26611 42.7893 6.09619C43.0588 5.92334 43.3547 5.83691 43.677 5.83691C44.0022 5.83691 44.2996 5.92188 44.5691 6.0918C44.8386 6.26172 45.054 6.4917 45.2151 6.78174C45.3792 7.06885 45.4612 7.39258 45.4612 7.75293C45.4612 8.11914 45.3792 8.4502 45.2151 8.74609C45.054 9.04199 44.8386 9.27783 44.5691 9.45361C44.2996 9.62646 44.0022 9.71289 43.677 9.71289ZM36.1799 13.8174C35.8723 13.8174 35.6555 13.7529 35.5295 13.624C35.4036 13.498 35.3406 13.3193 35.3406 13.0879C35.3406 12.7949 35.4167 12.4961 35.5691 12.1914C35.7244 11.8838 35.9441 11.6011 36.2283 11.3433C36.5154 11.0854 36.8567 10.876 37.2522 10.7148C37.6506 10.5537 38.0945 10.4731 38.5837 10.4731C38.9705 10.4731 39.3206 10.5244 39.634 10.627C39.9504 10.7266 40.2273 10.8525 40.4646 11.0049C40.2097 11.207 39.9915 11.4341 39.8098 11.686C39.6282 11.938 39.489 12.1958 39.3923 12.4595C39.2986 12.7202 39.2532 12.9678 39.2561 13.2021C39.262 13.4395 39.3235 13.6445 39.4407 13.8174H36.1799ZM38.5837 9.80957C38.3025 9.80957 38.0432 9.73486 37.8059 9.58545C37.5715 9.43311 37.384 9.22803 37.2434 8.97021C37.1028 8.7124 37.0325 8.42529 37.0325 8.10889C37.0325 7.79834 37.1028 7.51709 37.2434 7.26514C37.387 7.01025 37.5759 6.80811 37.8103 6.65869C38.0476 6.50928 38.3054 6.43457 38.5837 6.43457C38.8621 6.43457 39.1184 6.50928 39.3528 6.65869C39.5901 6.80518 39.7791 7.00439 39.9197 7.25635C40.0632 7.5083 40.135 7.79102 40.135 8.10449C40.135 8.4209 40.0647 8.70947 39.9241 8.97021C39.7834 9.22803 39.5959 9.43311 39.3616 9.58545C39.1272 9.73486 38.8679 9.80957 38.5837 9.80957Z" fill="#545454" style="mix-blend-mode:color-dodge"/>
<path d="M53.3 13L51.8108 7.74121H52.4553L53.6223 12.209H53.6809L54.9846 7.74121H55.6243L56.9231 12.209H56.9817L58.1584 7.74121H58.803L57.304 13H56.6301L55.3264 8.62988H55.2678L53.9739 13H53.3ZM59.9846 13V7.74121H60.6292V13H59.9846ZM60.3069 6.64746C60.1799 6.64746 60.0693 6.60189 59.9749 6.51074C59.8805 6.41634 59.8333 6.30404 59.8333 6.17383C59.8333 6.04362 59.8805 5.93294 59.9749 5.8418C60.0693 5.7474 60.1799 5.7002 60.3069 5.7002C60.4403 5.7002 60.5527 5.7474 60.6438 5.8418C60.7349 5.93294 60.7805 6.04362 60.7805 6.17383C60.7805 6.30404 60.7349 6.41634 60.6438 6.51074C60.5527 6.60189 60.4403 6.64746 60.3069 6.64746ZM62.3088 13V7.74121H62.9534V8.66406H63.012C63.1519 8.34505 63.3619 8.09766 63.6418 7.92188C63.925 7.74284 64.2701 7.65332 64.677 7.65332C65.2662 7.65332 65.7203 7.82259 66.0393 8.16113C66.3616 8.49642 66.5227 8.96842 66.5227 9.57715V13H65.8831V9.73828C65.8831 9.24023 65.7675 8.86426 65.5364 8.61035C65.3085 8.35319 64.9667 8.22461 64.511 8.22461C64.2017 8.22461 63.9299 8.29297 63.6956 8.42969C63.4612 8.56641 63.2789 8.75846 63.1487 9.00586C63.0185 9.25326 62.9534 9.54297 62.9534 9.875V13H62.3088ZM70.0872 13.0879C69.6444 13.0879 69.2555 12.9756 68.9202 12.751C68.5881 12.5231 68.3293 12.2057 68.1438 11.7988C67.9583 11.3887 67.8655 10.915 67.8655 10.3779V10.3682C67.8655 9.82454 67.9583 9.34928 68.1438 8.94238C68.3293 8.53548 68.5881 8.21973 68.9202 7.99512C69.2555 7.76725 69.6444 7.65332 70.0872 7.65332C70.3541 7.65332 70.6031 7.69889 70.8342 7.79004C71.0686 7.88118 71.2737 8.00977 71.4495 8.17578C71.6252 8.3418 71.762 8.54036 71.8596 8.77148H71.9182V5.64648H72.5627V13H71.9182V11.9502H71.8596C71.7555 12.1846 71.6155 12.3864 71.4397 12.5557C71.2672 12.7249 71.0653 12.8568 70.8342 12.9512C70.6064 13.0423 70.3573 13.0879 70.0872 13.0879ZM70.2239 12.5166C70.5689 12.5166 70.8684 12.4287 71.1223 12.2529C71.3795 12.0739 71.578 11.8249 71.718 11.5059C71.8612 11.1836 71.9329 10.806 71.9329 10.373V10.3633C71.9329 9.93034 71.8612 9.55436 71.718 9.23535C71.578 8.91634 71.3795 8.66895 71.1223 8.49316C70.8684 8.31413 70.5689 8.22461 70.2239 8.22461C69.8788 8.22461 69.5777 8.3125 69.3206 8.48828C69.0667 8.66406 68.8697 8.91146 68.7297 9.23047C68.5898 9.54948 68.5198 9.92708 68.5198 10.3633V10.373C68.5198 10.806 68.5898 11.1836 68.7297 11.5059C68.8697 11.8281 69.0667 12.0771 69.3206 12.2529C69.5777 12.4287 69.8788 12.5166 70.2239 12.5166ZM76.3958 14.8359C75.9954 14.8359 75.6422 14.779 75.3362 14.665C75.0302 14.5544 74.7844 14.3965 74.5989 14.1914C74.4133 13.9896 74.2978 13.7536 74.2522 13.4834L74.262 13.4785H74.926L74.9309 13.4834C74.9895 13.7113 75.1474 13.8968 75.4045 14.04C75.665 14.1865 75.9954 14.2598 76.3958 14.2598C76.9036 14.2598 77.304 14.1377 77.5969 13.8936C77.8931 13.6494 78.0413 13.3158 78.0413 12.8926V11.7109H77.9827C77.8785 11.9421 77.7385 12.1406 77.5627 12.3066C77.3902 12.4727 77.19 12.5996 76.9622 12.6875C76.7343 12.7721 76.4853 12.8145 76.2151 12.8145C75.7659 12.8145 75.3752 12.7054 75.0432 12.4873C74.7112 12.266 74.454 11.9632 74.2717 11.5791C74.0894 11.1917 73.9983 10.7458 73.9983 10.2412V10.2314C73.9983 9.73014 74.0894 9.28581 74.2717 8.89844C74.454 8.51107 74.7112 8.20671 75.0432 7.98535C75.3785 7.764 75.774 7.65332 76.2297 7.65332C76.4999 7.65332 76.7489 7.70052 76.9768 7.79492C77.2047 7.88932 77.4049 8.02279 77.5774 8.19531C77.7499 8.36784 77.8866 8.57292 77.9875 8.81055H78.0364V7.74121H78.676V12.9365C78.676 13.3174 78.5816 13.6494 78.3928 13.9326C78.2073 14.2191 77.942 14.4404 77.5969 14.5967C77.2551 14.7562 76.8547 14.8359 76.3958 14.8359ZM76.342 12.2383C76.6936 12.2383 76.9963 12.1553 77.2502 11.9893C77.5074 11.82 77.706 11.5872 77.8459 11.291C77.9859 10.9915 78.0559 10.6465 78.0559 10.2559V10.2461C78.0559 9.84896 77.9843 9.49902 77.8411 9.19629C77.7011 8.89355 77.5025 8.65592 77.2454 8.4834C76.9915 8.31087 76.6903 8.22461 76.342 8.22461C75.9905 8.22461 75.6894 8.31087 75.4387 8.4834C75.1881 8.65267 74.9944 8.88867 74.8577 9.19141C74.7209 9.49414 74.6526 9.84082 74.6526 10.2314V10.2412C74.6526 10.6351 74.7209 10.9818 74.8577 11.2812C74.9944 11.5807 75.1881 11.8151 75.4387 11.9844C75.6894 12.1536 75.9905 12.2383 76.342 12.2383ZM82.4456 13.0879C81.954 13.0879 81.5292 12.9772 81.1711 12.7559C80.8163 12.5345 80.5429 12.222 80.3508 11.8184C80.1588 11.4147 80.0627 10.9378 80.0627 10.3877V10.3779C80.0627 9.83105 80.1588 9.35417 80.3508 8.94727C80.5429 8.53711 80.8131 8.21973 81.1614 7.99512C81.5129 7.76725 81.9231 7.65332 82.3918 7.65332C82.8639 7.65332 83.2691 7.764 83.6077 7.98535C83.9495 8.20345 84.2115 8.50944 84.3938 8.90332C84.5793 9.29395 84.6721 9.74805 84.6721 10.2656V10.5391H80.3948V10.0117H84.345L84.0276 10.4854V10.2412C84.0276 9.80176 83.9576 9.43392 83.8176 9.1377C83.6809 8.83822 83.4889 8.61198 83.2415 8.45898C82.9973 8.30599 82.7141 8.22949 82.3918 8.22949C82.0663 8.22949 81.7782 8.30762 81.5276 8.46387C81.2769 8.62012 81.0784 8.84961 80.9319 9.15234C80.7887 9.45182 80.717 9.81478 80.717 10.2412V10.4854C80.717 10.9053 80.7887 11.2666 80.9319 11.5693C81.0751 11.8721 81.2769 12.1048 81.5374 12.2676C81.7978 12.4303 82.1054 12.5117 82.4602 12.5117C82.7141 12.5117 82.9403 12.4759 83.1389 12.4043C83.3407 12.3327 83.5084 12.2383 83.6418 12.1211C83.7753 12.0007 83.8713 11.8737 83.9299 11.7402L83.9446 11.7012H84.594L84.5793 11.7402C84.5273 11.9193 84.441 12.0902 84.3206 12.2529C84.2034 12.4124 84.0536 12.5557 83.8713 12.6826C83.689 12.8063 83.4775 12.9056 83.2366 12.9805C82.9989 13.0521 82.7353 13.0879 82.4456 13.0879ZM87.7922 13.0342C87.2942 13.0342 86.9329 12.93 86.7083 12.7217C86.4869 12.5133 86.3762 12.1699 86.3762 11.6914V8.27832H85.5315V7.74121H86.3762V6.37402H87.0403V7.74121H88.2463V8.27832H87.0403V11.5449C87.0403 11.8704 87.1038 12.1048 87.2307 12.248C87.3577 12.3913 87.5693 12.4629 87.8655 12.4629C87.9403 12.4629 88.0055 12.4613 88.0608 12.458C88.1161 12.4548 88.178 12.4499 88.2463 12.4434V12.9951C88.1715 13.0049 88.0966 13.013 88.0217 13.0195C87.9501 13.0293 87.8736 13.0342 87.7922 13.0342ZM91.2444 13.0879C90.8635 13.0879 90.525 13.0309 90.2288 12.917C89.9325 12.7998 89.6949 12.637 89.5159 12.4287C89.3368 12.2171 89.2294 11.9681 89.1936 11.6816H89.8528C89.9244 11.9453 90.0823 12.1553 90.3264 12.3115C90.5706 12.4678 90.8831 12.5459 91.2639 12.5459C91.5211 12.5459 91.7506 12.5052 91.9524 12.4238C92.1575 12.3424 92.3186 12.2301 92.4358 12.0869C92.5562 11.9437 92.6165 11.7809 92.6165 11.5986V11.5889C92.6165 11.361 92.5302 11.1755 92.3577 11.0322C92.1851 10.889 91.9068 10.7718 91.5227 10.6807L90.7952 10.5098C90.4696 10.4316 90.1995 10.334 89.9846 10.2168C89.773 10.0964 89.6152 9.94824 89.511 9.77246C89.4101 9.59342 89.3596 9.38184 89.3596 9.1377V9.13281C89.3596 8.84961 89.4426 8.5957 89.6086 8.37109C89.7779 8.14648 90.0058 7.9707 90.2922 7.84375C90.5819 7.7168 90.9026 7.65332 91.2542 7.65332C91.6057 7.65332 91.9198 7.70866 92.1965 7.81934C92.4732 7.93001 92.6962 8.08789 92.8655 8.29297C93.038 8.49805 93.1454 8.73893 93.1877 9.01562H92.553C92.4976 8.77148 92.3544 8.57454 92.1233 8.4248C91.8922 8.27181 91.6008 8.19531 91.2493 8.19531C91.0214 8.19531 90.8131 8.23438 90.6243 8.3125C90.4387 8.39062 90.2906 8.49805 90.1799 8.63477C90.0693 8.77148 90.0139 8.92773 90.0139 9.10352V9.11328C90.0139 9.25651 90.0497 9.38184 90.1213 9.48926C90.1962 9.59342 90.3085 9.68457 90.4583 9.7627C90.6112 9.83757 90.8049 9.90267 91.0393 9.95801L91.762 10.1338C92.2698 10.2542 92.649 10.4251 92.8997 10.6465C93.1503 10.8646 93.2756 11.1624 93.2756 11.54V11.5498C93.2756 11.8525 93.1845 12.1195 93.0022 12.3506C92.8232 12.5817 92.5806 12.7624 92.2747 12.8926C91.9719 13.0228 91.6285 13.0879 91.2444 13.0879Z" fill="white" fill-opacity="0.23" style="mix-blend-mode:lighten"/>
<path d="M53.3 13L51.8108 7.74121H52.4553L53.6223 12.209H53.6809L54.9846 7.74121H55.6243L56.9231 12.209H56.9817L58.1584 7.74121H58.803L57.304 13H56.6301L55.3264 8.62988H55.2678L53.9739 13H53.3ZM59.9846 13V7.74121H60.6292V13H59.9846ZM60.3069 6.64746C60.1799 6.64746 60.0693 6.60189 59.9749 6.51074C59.8805 6.41634 59.8333 6.30404 59.8333 6.17383C59.8333 6.04362 59.8805 5.93294 59.9749 5.8418C60.0693 5.7474 60.1799 5.7002 60.3069 5.7002C60.4403 5.7002 60.5527 5.7474 60.6438 5.8418C60.7349 5.93294 60.7805 6.04362 60.7805 6.17383C60.7805 6.30404 60.7349 6.41634 60.6438 6.51074C60.5527 6.60189 60.4403 6.64746 60.3069 6.64746ZM62.3088 13V7.74121H62.9534V8.66406H63.012C63.1519 8.34505 63.3619 8.09766 63.6418 7.92188C63.925 7.74284 64.2701 7.65332 64.677 7.65332C65.2662 7.65332 65.7203 7.82259 66.0393 8.16113C66.3616 8.49642 66.5227 8.96842 66.5227 9.57715V13H65.8831V9.73828C65.8831 9.24023 65.7675 8.86426 65.5364 8.61035C65.3085 8.35319 64.9667 8.22461 64.511 8.22461C64.2017 8.22461 63.9299 8.29297 63.6956 8.42969C63.4612 8.56641 63.2789 8.75846 63.1487 9.00586C63.0185 9.25326 62.9534 9.54297 62.9534 9.875V13H62.3088ZM70.0872 13.0879C69.6444 13.0879 69.2555 12.9756 68.9202 12.751C68.5881 12.5231 68.3293 12.2057 68.1438 11.7988C67.9583 11.3887 67.8655 10.915 67.8655 10.3779V10.3682C67.8655 9.82454 67.9583 9.34928 68.1438 8.94238C68.3293 8.53548 68.5881 8.21973 68.9202 7.99512C69.2555 7.76725 69.6444 7.65332 70.0872 7.65332C70.3541 7.65332 70.6031 7.69889 70.8342 7.79004C71.0686 7.88118 71.2737 8.00977 71.4495 8.17578C71.6252 8.3418 71.762 8.54036 71.8596 8.77148H71.9182V5.64648H72.5627V13H71.9182V11.9502H71.8596C71.7555 12.1846 71.6155 12.3864 71.4397 12.5557C71.2672 12.7249 71.0653 12.8568 70.8342 12.9512C70.6064 13.0423 70.3573 13.0879 70.0872 13.0879ZM70.2239 12.5166C70.5689 12.5166 70.8684 12.4287 71.1223 12.2529C71.3795 12.0739 71.578 11.8249 71.718 11.5059C71.8612 11.1836 71.9329 10.806 71.9329 10.373V10.3633C71.9329 9.93034 71.8612 9.55436 71.718 9.23535C71.578 8.91634 71.3795 8.66895 71.1223 8.49316C70.8684 8.31413 70.5689 8.22461 70.2239 8.22461C69.8788 8.22461 69.5777 8.3125 69.3206 8.48828C69.0667 8.66406 68.8697 8.91146 68.7297 9.23047C68.5898 9.54948 68.5198 9.92708 68.5198 10.3633V10.373C68.5198 10.806 68.5898 11.1836 68.7297 11.5059C68.8697 11.8281 69.0667 12.0771 69.3206 12.2529C69.5777 12.4287 69.8788 12.5166 70.2239 12.5166ZM76.3958 14.8359C75.9954 14.8359 75.6422 14.779 75.3362 14.665C75.0302 14.5544 74.7844 14.3965 74.5989 14.1914C74.4133 13.9896 74.2978 13.7536 74.2522 13.4834L74.262 13.4785H74.926L74.9309 13.4834C74.9895 13.7113 75.1474 13.8968 75.4045 14.04C75.665 14.1865 75.9954 14.2598 76.3958 14.2598C76.9036 14.2598 77.304 14.1377 77.5969 13.8936C77.8931 13.6494 78.0413 13.3158 78.0413 12.8926V11.7109H77.9827C77.8785 11.9421 77.7385 12.1406 77.5627 12.3066C77.3902 12.4727 77.19 12.5996 76.9622 12.6875C76.7343 12.7721 76.4853 12.8145 76.2151 12.8145C75.7659 12.8145 75.3752 12.7054 75.0432 12.4873C74.7112 12.266 74.454 11.9632 74.2717 11.5791C74.0894 11.1917 73.9983 10.7458 73.9983 10.2412V10.2314C73.9983 9.73014 74.0894 9.28581 74.2717 8.89844C74.454 8.51107 74.7112 8.20671 75.0432 7.98535C75.3785 7.764 75.774 7.65332 76.2297 7.65332C76.4999 7.65332 76.7489 7.70052 76.9768 7.79492C77.2047 7.88932 77.4049 8.02279 77.5774 8.19531C77.7499 8.36784 77.8866 8.57292 77.9875 8.81055H78.0364V7.74121H78.676V12.9365C78.676 13.3174 78.5816 13.6494 78.3928 13.9326C78.2073 14.2191 77.942 14.4404 77.5969 14.5967C77.2551 14.7562 76.8547 14.8359 76.3958 14.8359ZM76.342 12.2383C76.6936 12.2383 76.9963 12.1553 77.2502 11.9893C77.5074 11.82 77.706 11.5872 77.8459 11.291C77.9859 10.9915 78.0559 10.6465 78.0559 10.2559V10.2461C78.0559 9.84896 77.9843 9.49902 77.8411 9.19629C77.7011 8.89355 77.5025 8.65592 77.2454 8.4834C76.9915 8.31087 76.6903 8.22461 76.342 8.22461C75.9905 8.22461 75.6894 8.31087 75.4387 8.4834C75.1881 8.65267 74.9944 8.88867 74.8577 9.19141C74.7209 9.49414 74.6526 9.84082 74.6526 10.2314V10.2412C74.6526 10.6351 74.7209 10.9818 74.8577 11.2812C74.9944 11.5807 75.1881 11.8151 75.4387 11.9844C75.6894 12.1536 75.9905 12.2383 76.342 12.2383ZM82.4456 13.0879C81.954 13.0879 81.5292 12.9772 81.1711 12.7559C80.8163 12.5345 80.5429 12.222 80.3508 11.8184C80.1588 11.4147 80.0627 10.9378 80.0627 10.3877V10.3779C80.0627 9.83105 80.1588 9.35417 80.3508 8.94727C80.5429 8.53711 80.8131 8.21973 81.1614 7.99512C81.5129 7.76725 81.9231 7.65332 82.3918 7.65332C82.8639 7.65332 83.2691 7.764 83.6077 7.98535C83.9495 8.20345 84.2115 8.50944 84.3938 8.90332C84.5793 9.29395 84.6721 9.74805 84.6721 10.2656V10.5391H80.3948V10.0117H84.345L84.0276 10.4854V10.2412C84.0276 9.80176 83.9576 9.43392 83.8176 9.1377C83.6809 8.83822 83.4889 8.61198 83.2415 8.45898C82.9973 8.30599 82.7141 8.22949 82.3918 8.22949C82.0663 8.22949 81.7782 8.30762 81.5276 8.46387C81.2769 8.62012 81.0784 8.84961 80.9319 9.15234C80.7887 9.45182 80.717 9.81478 80.717 10.2412V10.4854C80.717 10.9053 80.7887 11.2666 80.9319 11.5693C81.0751 11.8721 81.2769 12.1048 81.5374 12.2676C81.7978 12.4303 82.1054 12.5117 82.4602 12.5117C82.7141 12.5117 82.9403 12.4759 83.1389 12.4043C83.3407 12.3327 83.5084 12.2383 83.6418 12.1211C83.7753 12.0007 83.8713 11.8737 83.9299 11.7402L83.9446 11.7012H84.594L84.5793 11.7402C84.5273 11.9193 84.441 12.0902 84.3206 12.2529C84.2034 12.4124 84.0536 12.5557 83.8713 12.6826C83.689 12.8063 83.4775 12.9056 83.2366 12.9805C82.9989 13.0521 82.7353 13.0879 82.4456 13.0879ZM87.7922 13.0342C87.2942 13.0342 86.9329 12.93 86.7083 12.7217C86.4869 12.5133 86.3762 12.1699 86.3762 11.6914V8.27832H85.5315V7.74121H86.3762V6.37402H87.0403V7.74121H88.2463V8.27832H87.0403V11.5449C87.0403 11.8704 87.1038 12.1048 87.2307 12.248C87.3577 12.3913 87.5693 12.4629 87.8655 12.4629C87.9403 12.4629 88.0055 12.4613 88.0608 12.458C88.1161 12.4548 88.178 12.4499 88.2463 12.4434V12.9951C88.1715 13.0049 88.0966 13.013 88.0217 13.0195C87.9501 13.0293 87.8736 13.0342 87.7922 13.0342ZM91.2444 13.0879C90.8635 13.0879 90.525 13.0309 90.2288 12.917C89.9325 12.7998 89.6949 12.637 89.5159 12.4287C89.3368 12.2171 89.2294 11.9681 89.1936 11.6816H89.8528C89.9244 11.9453 90.0823 12.1553 90.3264 12.3115C90.5706 12.4678 90.8831 12.5459 91.2639 12.5459C91.5211 12.5459 91.7506 12.5052 91.9524 12.4238C92.1575 12.3424 92.3186 12.2301 92.4358 12.0869C92.5562 11.9437 92.6165 11.7809 92.6165 11.5986V11.5889C92.6165 11.361 92.5302 11.1755 92.3577 11.0322C92.1851 10.889 91.9068 10.7718 91.5227 10.6807L90.7952 10.5098C90.4696 10.4316 90.1995 10.334 89.9846 10.2168C89.773 10.0964 89.6152 9.94824 89.511 9.77246C89.4101 9.59342 89.3596 9.38184 89.3596 9.1377V9.13281C89.3596 8.84961 89.4426 8.5957 89.6086 8.37109C89.7779 8.14648 90.0058 7.9707 90.2922 7.84375C90.5819 7.7168 90.9026 7.65332 91.2542 7.65332C91.6057 7.65332 91.9198 7.70866 92.1965 7.81934C92.4732 7.93001 92.6962 8.08789 92.8655 8.29297C93.038 8.49805 93.1454 8.73893 93.1877 9.01562H92.553C92.4976 8.77148 92.3544 8.57454 92.1233 8.4248C91.8922 8.27181 91.6008 8.19531 91.2493 8.19531C91.0214 8.19531 90.8131 8.23438 90.6243 8.3125C90.4387 8.39062 90.2906 8.49805 90.1799 8.63477C90.0693 8.77148 90.0139 8.92773 90.0139 9.10352V9.11328C90.0139 9.25651 90.0497 9.38184 90.1213 9.48926C90.1962 9.59342 90.3085 9.68457 90.4583 9.7627C90.6112 9.83757 90.8049 9.90267 91.0393 9.95801L91.762 10.1338C92.2698 10.2542 92.649 10.4251 92.8997 10.6465C93.1503 10.8646 93.2756 11.1624 93.2756 11.54V11.5498C93.2756 11.8525 93.1845 12.1195 93.0022 12.3506C92.8232 12.5817 92.5806 12.7624 92.2747 12.8926C91.9719 13.0228 91.6285 13.0879 91.2444 13.0879Z" fill="#545454" style="mix-blend-mode:color-dodge"/>
</g>
<g filter="url(#filter2_d_717_2231)">
<rect x="126.52" y="2.77795" width="118.939" height="14.4441" rx="7.22205" fill="white" fill-opacity="0.06" style="mix-blend-mode:lighten" shape-rendering="crispEdges"/>
<rect x="126.52" y="2.77795" width="118.939" height="14.4441" rx="7.22205" fill="#5E5E5E" fill-opacity="0.18" style="mix-blend-mode:color-dodge" shape-rendering="crispEdges"/>
<rect x="126.71" y="2.96801" width="118.559" height="14.064" rx="7.032" stroke="url(#paint0_linear_717_2231)" stroke-width="0.380108" shape-rendering="crispEdges"/>
<path d="M148.503 15.1172C148.019 15.1172 147.652 14.9912 147.4 14.7393C147.151 14.4873 147.026 14.1182 147.026 13.6318V7.02686C147.026 6.54346 147.151 6.17432 147.4 5.91943C147.652 5.66455 148.019 5.53711 148.503 5.53711H150.502V8.93408C150.502 9.47314 150.77 9.74268 151.306 9.74268H154.673V13.6318C154.673 14.1182 154.547 14.4873 154.295 14.7393C154.043 14.9912 153.677 15.1172 153.196 15.1172H148.503ZM151.434 9.06592C151.261 9.06592 151.175 8.98096 151.175 8.81104V5.58105C151.28 5.59277 151.385 5.63672 151.491 5.71289C151.596 5.78613 151.706 5.88135 151.821 5.99854L154.207 8.41113C154.327 8.53418 154.424 8.64844 154.497 8.75391C154.57 8.85938 154.614 8.96338 154.629 9.06592H151.434Z" fill="white" style="mix-blend-mode:color-dodge"/>
<path d="M162.921 13.5L165.558 6.4541H166.07V7.32812H165.856L163.619 13.5H162.921ZM164.059 11.3369L164.264 10.7656H167.516L167.721 11.3369H164.059ZM168.151 13.5L165.914 7.32812V6.4541H166.217L168.854 13.5H168.151ZM170.045 15.2432V8.24121H170.69V9.29102H170.748C170.852 9.05664 170.991 8.85482 171.163 8.68555C171.336 8.51302 171.536 8.38118 171.764 8.29004C171.995 8.19889 172.246 8.15332 172.516 8.15332C172.962 8.15332 173.351 8.26725 173.683 8.49512C174.018 8.71973 174.278 9.03548 174.464 9.44238C174.65 9.84928 174.742 10.3229 174.742 10.8633V10.873C174.742 11.4167 174.65 11.8919 174.464 12.2988C174.278 12.7057 174.018 13.0231 173.683 13.251C173.351 13.4756 172.962 13.5879 172.516 13.5879C172.252 13.5879 172.003 13.5423 171.769 13.4512C171.538 13.3568 171.334 13.2266 171.158 13.0605C170.983 12.8945 170.846 12.6976 170.748 12.4697H170.69V15.2432H170.045ZM172.384 13.0166C172.732 13.0166 173.033 12.9287 173.287 12.7529C173.541 12.5771 173.736 12.3281 173.873 12.0059C174.013 11.6836 174.083 11.306 174.083 10.873V10.8633C174.083 10.4271 174.013 10.0495 173.873 9.73047C173.736 9.41146 173.541 9.16406 173.287 8.98828C173.033 8.8125 172.732 8.72461 172.384 8.72461C172.036 8.72461 171.733 8.81413 171.476 8.99316C171.222 9.16895 171.025 9.41634 170.885 9.73535C170.745 10.0544 170.675 10.4303 170.675 10.8633V10.873C170.675 11.306 170.745 11.6836 170.885 12.0059C171.025 12.3249 171.223 12.5739 171.481 12.7529C171.738 12.9287 172.039 13.0166 172.384 13.0166ZM176.168 13.5V6.14648H176.813V13.5H176.168ZM178.541 13.5V8.24121H179.186V13.5H178.541ZM178.863 7.14746C178.736 7.14746 178.626 7.10189 178.531 7.01074C178.437 6.91634 178.39 6.80404 178.39 6.67383C178.39 6.54362 178.437 6.43294 178.531 6.3418C178.626 6.2474 178.736 6.2002 178.863 6.2002C178.997 6.2002 179.109 6.2474 179.2 6.3418C179.291 6.43294 179.337 6.54362 179.337 6.67383C179.337 6.80404 179.291 6.91634 179.2 7.01074C179.109 7.10189 178.997 7.14746 178.863 7.14746ZM182.975 13.5879C182.49 13.5879 182.07 13.4772 181.715 13.2559C181.36 13.0312 181.085 12.7139 180.89 12.3037C180.698 11.8936 180.602 11.4118 180.602 10.8584V10.8486C180.602 10.2985 180.698 9.82324 180.89 9.42285C181.082 9.01921 181.355 8.70671 181.71 8.48535C182.068 8.264 182.488 8.15332 182.97 8.15332C183.37 8.15332 183.722 8.22493 184.025 8.36816C184.327 8.50814 184.571 8.7002 184.757 8.94434C184.946 9.18848 185.068 9.46354 185.123 9.76953V9.78906H184.484V9.7793C184.405 9.47656 184.234 9.22591 183.971 9.02734C183.707 8.82552 183.373 8.72461 182.97 8.72461C182.622 8.72461 182.319 8.8125 182.062 8.98828C181.804 9.16081 181.606 9.40658 181.466 9.72559C181.326 10.0413 181.256 10.4157 181.256 10.8486V10.8584C181.256 11.2946 181.326 11.6755 181.466 12.001C181.609 12.3232 181.809 12.5739 182.067 12.7529C182.324 12.9287 182.625 13.0166 182.97 13.0166C183.36 13.0166 183.684 12.9287 183.942 12.7529C184.202 12.5771 184.379 12.3298 184.474 12.0107L184.484 11.9863L185.118 11.9814L185.113 12.0254C185.045 12.3314 184.918 12.6032 184.733 12.8408C184.55 13.0752 184.311 13.2591 184.015 13.3926C183.722 13.5228 183.375 13.5879 182.975 13.5879ZM187.911 13.5879C187.573 13.5879 187.272 13.526 187.008 13.4023C186.744 13.2754 186.536 13.0964 186.383 12.8652C186.23 12.6341 186.153 12.3623 186.153 12.0498V12.04C186.153 11.7373 186.227 11.4769 186.373 11.2588C186.52 11.0374 186.734 10.8649 187.018 10.7412C187.301 10.6143 187.644 10.5378 188.048 10.5117L190.011 10.3848V10.9072L188.136 11.0342C187.687 11.0635 187.353 11.1628 187.135 11.332C186.92 11.498 186.813 11.7308 186.813 12.0303V12.04C186.813 12.3428 186.927 12.5837 187.154 12.7627C187.382 12.9385 187.675 13.0264 188.033 13.0264C188.349 13.0264 188.631 12.9613 188.878 12.8311C189.129 12.6976 189.327 12.5186 189.474 12.2939C189.62 12.0693 189.693 11.8187 189.693 11.542V9.91113C189.693 9.52376 189.58 9.22917 189.352 9.02734C189.124 8.82552 188.797 8.72461 188.37 8.72461C188.012 8.72461 187.714 8.7946 187.477 8.93457C187.239 9.07454 187.084 9.27637 187.013 9.54004L187.008 9.5498H186.363L186.368 9.53027C186.414 9.24707 186.528 9.00293 186.71 8.79785C186.892 8.59277 187.127 8.4349 187.413 8.32422C187.7 8.21029 188.025 8.15332 188.39 8.15332C188.803 8.15332 189.155 8.22331 189.444 8.36328C189.734 8.5 189.954 8.69857 190.104 8.95898C190.257 9.2194 190.333 9.53516 190.333 9.90625V13.5H189.693V12.5918H189.63C189.526 12.8001 189.389 12.9792 189.22 13.1289C189.051 13.2754 188.855 13.3893 188.634 13.4707C188.413 13.5488 188.172 13.5879 187.911 13.5879ZM194.068 13.5879C193.583 13.5879 193.164 13.4772 192.809 13.2559C192.454 13.0312 192.179 12.7139 191.984 12.3037C191.791 11.8936 191.695 11.4118 191.695 10.8584V10.8486C191.695 10.2985 191.791 9.82324 191.984 9.42285C192.176 9.01921 192.449 8.70671 192.804 8.48535C193.162 8.264 193.582 8.15332 194.064 8.15332C194.464 8.15332 194.816 8.22493 195.118 8.36816C195.421 8.50814 195.665 8.7002 195.851 8.94434C196.04 9.18848 196.162 9.46354 196.217 9.76953V9.78906H195.577V9.7793C195.499 9.47656 195.328 9.22591 195.065 9.02734C194.801 8.82552 194.467 8.72461 194.064 8.72461C193.715 8.72461 193.413 8.8125 193.155 8.98828C192.898 9.16081 192.7 9.40658 192.56 9.72559C192.42 10.0413 192.35 10.4157 192.35 10.8486V10.8584C192.35 11.2946 192.42 11.6755 192.56 12.001C192.703 12.3232 192.903 12.5739 193.16 12.7529C193.417 12.9287 193.719 13.0166 194.064 13.0166C194.454 13.0166 194.778 12.9287 195.035 12.7529C195.296 12.5771 195.473 12.3298 195.568 12.0107L195.577 11.9863L196.212 11.9814L196.207 12.0254C196.139 12.3314 196.012 12.6032 195.826 12.8408C195.644 13.0752 195.405 13.2591 195.109 13.3926C194.816 13.5228 194.469 13.5879 194.068 13.5879ZM197.584 13.5V8.24121H198.229V13.5H197.584ZM197.906 7.14746C197.779 7.14746 197.669 7.10189 197.574 7.01074C197.48 6.91634 197.433 6.80404 197.433 6.67383C197.433 6.54362 197.48 6.43294 197.574 6.3418C197.669 6.2474 197.779 6.2002 197.906 6.2002C198.04 6.2002 198.152 6.2474 198.243 6.3418C198.334 6.43294 198.38 6.54362 198.38 6.67383C198.38 6.80404 198.334 6.91634 198.243 7.01074C198.152 7.10189 198.04 7.14746 197.906 7.14746ZM202.032 13.5879C201.544 13.5879 201.121 13.4788 200.763 13.2607C200.405 13.0394 200.128 12.7253 199.933 12.3184C199.741 11.9115 199.645 11.4297 199.645 10.873V10.8633C199.645 10.3066 199.741 9.82487 199.933 9.41797C200.128 9.01107 200.405 8.69857 200.763 8.48047C201.121 8.26237 201.544 8.15332 202.032 8.15332C202.524 8.15332 202.947 8.26237 203.302 8.48047C203.66 8.69857 203.935 9.01107 204.127 9.41797C204.322 9.82487 204.42 10.3066 204.42 10.8633V10.873C204.42 11.4297 204.322 11.9115 204.127 12.3184C203.935 12.7253 203.66 13.0394 203.302 13.2607C202.947 13.4788 202.524 13.5879 202.032 13.5879ZM202.032 13.0166C202.394 13.0166 202.703 12.9303 202.96 12.7578C203.22 12.5853 203.419 12.3395 203.556 12.0205C203.696 11.6982 203.766 11.3158 203.766 10.873V10.8633C203.766 10.4206 203.696 10.0397 203.556 9.7207C203.419 9.39844 203.22 9.15267 202.96 8.9834C202.703 8.81087 202.394 8.72461 202.032 8.72461C201.671 8.72461 201.36 8.81087 201.1 8.9834C200.843 9.15267 200.644 9.39681 200.504 9.71582C200.367 10.0348 200.299 10.4173 200.299 10.8633V10.873C200.299 11.3158 200.367 11.6982 200.504 12.0205C200.644 12.3395 200.843 12.5853 201.1 12.7578C201.36 12.9303 201.671 13.0166 202.032 13.0166ZM205.807 13.5V8.24121H206.451V9.16406H206.51C206.65 8.84505 206.86 8.59766 207.14 8.42188C207.423 8.24284 207.768 8.15332 208.175 8.15332C208.764 8.15332 209.218 8.32259 209.537 8.66113C209.859 8.99642 210.021 9.46842 210.021 10.0771V13.5H209.381V10.2383C209.381 9.74023 209.265 9.36426 209.034 9.11035C208.806 8.85319 208.465 8.72461 208.009 8.72461C207.7 8.72461 207.428 8.79297 207.193 8.92969C206.959 9.06641 206.777 9.25846 206.647 9.50586C206.516 9.75326 206.451 10.043 206.451 10.375V13.5H205.807ZM213.746 13.5879C213.255 13.5879 212.83 13.4772 212.472 13.2559C212.117 13.0345 211.844 12.722 211.651 12.3184C211.459 11.9147 211.363 11.4378 211.363 10.8877V10.8779C211.363 10.3311 211.459 9.85417 211.651 9.44727C211.844 9.03711 212.114 8.71973 212.462 8.49512C212.814 8.26725 213.224 8.15332 213.693 8.15332C214.165 8.15332 214.57 8.264 214.908 8.48535C215.25 8.70345 215.512 9.00944 215.694 9.40332C215.88 9.79395 215.973 10.248 215.973 10.7656V11.0391H211.695V10.5117H215.646L215.328 10.9854V10.7412C215.328 10.3018 215.258 9.93392 215.118 9.6377C214.982 9.33822 214.79 9.11198 214.542 8.95898C214.298 8.80599 214.015 8.72949 213.693 8.72949C213.367 8.72949 213.079 8.80762 212.828 8.96387C212.578 9.12012 212.379 9.34961 212.233 9.65234C212.089 9.95182 212.018 10.3148 212.018 10.7412V10.9854C212.018 11.4053 212.089 11.7666 212.233 12.0693C212.376 12.3721 212.578 12.6048 212.838 12.7676C213.098 12.9303 213.406 13.0117 213.761 13.0117C214.015 13.0117 214.241 12.9759 214.44 12.9043C214.641 12.8327 214.809 12.7383 214.943 12.6211C215.076 12.5007 215.172 12.3737 215.231 12.2402L215.245 12.2012H215.895L215.88 12.2402C215.828 12.4193 215.742 12.5902 215.621 12.7529C215.504 12.9124 215.354 13.0557 215.172 13.1826C214.99 13.3063 214.778 13.4056 214.537 13.4805C214.3 13.5521 214.036 13.5879 213.746 13.5879ZM219.127 13.5879C218.746 13.5879 218.408 13.5309 218.111 13.417C217.815 13.2998 217.578 13.137 217.399 12.9287C217.22 12.7171 217.112 12.4681 217.076 12.1816H217.735C217.807 12.4453 217.965 12.6553 218.209 12.8115C218.453 12.9678 218.766 13.0459 219.147 13.0459C219.404 13.0459 219.633 13.0052 219.835 12.9238C220.04 12.8424 220.201 12.7301 220.318 12.5869C220.439 12.4437 220.499 12.2809 220.499 12.0986V12.0889C220.499 11.861 220.413 11.6755 220.24 11.5322C220.068 11.389 219.79 11.2718 219.405 11.1807L218.678 11.0098C218.352 10.9316 218.082 10.834 217.867 10.7168C217.656 10.5964 217.498 10.4482 217.394 10.2725C217.293 10.0934 217.242 9.88184 217.242 9.6377V9.63281C217.242 9.34961 217.325 9.0957 217.491 8.87109C217.661 8.64648 217.888 8.4707 218.175 8.34375C218.465 8.2168 218.785 8.15332 219.137 8.15332C219.488 8.15332 219.803 8.20866 220.079 8.31934C220.356 8.43001 220.579 8.58789 220.748 8.79297C220.921 8.99805 221.028 9.23893 221.07 9.51562H220.436C220.38 9.27148 220.237 9.07454 220.006 8.9248C219.775 8.77181 219.484 8.69531 219.132 8.69531C218.904 8.69531 218.696 8.73438 218.507 8.8125C218.321 8.89062 218.173 8.99805 218.063 9.13477C217.952 9.27148 217.897 9.42773 217.897 9.60352V9.61328C217.897 9.75651 217.932 9.88184 218.004 9.98926C218.079 10.0934 218.191 10.1846 218.341 10.2627C218.494 10.3376 218.688 10.4027 218.922 10.458L219.645 10.6338C220.152 10.7542 220.532 10.9251 220.782 11.1465C221.033 11.3646 221.158 11.6624 221.158 12.04V12.0498C221.158 12.3525 221.067 12.6195 220.885 12.8506C220.706 13.0817 220.463 13.2624 220.157 13.3926C219.855 13.5228 219.511 13.5879 219.127 13.5879Z" fill="white" style="mix-blend-mode:color-dodge"/>
</g>
</g>
</g>
<defs>
<filter id="filter0_iiii_717_2231" x="1.5" y="-0.380108" width="247.76" height="21.5204" filterUnits="userSpaceOnUse" color-interpolation-filters="sRGB">
<feFlood flood-opacity="0" result="BackgroundImageFix"/>
<feBlend mode="normal" in="SourceGraphic" in2="BackgroundImageFix" result="shape"/>
<feColorMatrix in="SourceAlpha" type="matrix" values="0 0 0 0 0 0 0 0 0 0 0 0 0 0 0 0 0 0 127 0" result="hardAlpha"/>
<feOffset dx="0.760216" dy="1.14032"/>
<feGaussianBlur stdDeviation="1.52043"/>
<feComposite in2="hardAlpha" operator="arithmetic" k2="-1" k3="1"/>
<feColorMatrix type="matrix" values="0 0 0 0 0 0 0 0 0 0 0 0 0 0 0 0 0 0 0.1 0"/>
<feBlend mode="normal" in2="shape" result="effect1_innerShadow_717_2231"/>
<feColorMatrix in="SourceAlpha" type="matrix" values="0 0 0 0 0 0 0 0 0 0 0 0 0 0 0 0 0 0 127 0" result="hardAlpha"/>
<feOffset dx="0.760216" dy="1.14032"/>
<feGaussianBlur stdDeviation="1.52043"/>
<feComposite in2="hardAlpha" operator="arithmetic" k2="-1" k3="1"/>
<feColorMatrix type="matrix" values="0 0 0 0 0 0 0 0 0 0 0 0 0 0 0 0 0 0 0.08 0"/>
<feBlend mode="overlay" in2="effect1_innerShadow_717_2231" result="effect2_innerShadow_717_2231"/>
<feColorMatrix in="SourceAlpha" type="matrix" values="0 0 0 0 0 0 0 0 0 0 0 0 0 0 0 0 0 0 127 0" result="hardAlpha"/>
<feOffset dy="-0.380108"/>
<feGaussianBlur stdDeviation="0.380108"/>
<feComposite in2="hardAlpha" operator="arithmetic" k2="-1" k3="1"/>
<feColorMatrix type="matrix" values="0 0 0 0 1 0 0 0 0 1 0 0 0 0 1 0 0 0 0.25 0"/>
<feBlend mode="normal" in2="effect2_innerShadow_717_2231" result="effect3_innerShadow_717_2231"/>
<feColorMatrix in="SourceAlpha" type="matrix" values="0 0 0 0 0 0 0 0 0 0 0 0 0 0 0 0 0 0 127 0" result="hardAlpha"/>
<feOffset dy="-0.380108"/>
<feGaussianBlur stdDeviation="0.380108"/>
<feComposite in2="hardAlpha" operator="arithmetic" k2="-1" k3="1"/>
<feColorMatrix type="matrix" values="0 0 0 0 1 0 0 0 0 1 0 0 0 0 1 0 0 0 0.3 0"/>
<feBlend mode="overlay" in2="effect3_innerShadow_717_2231" result="effect4_innerShadow_717_2231"/>
</filter>
<filter id="filter1_d_717_2231" x="1.50003" y="0.479568" width="125.02" height="22.0817" filterUnits="userSpaceOnUse" color-interpolation-filters="sRGB">
<feFlood flood-opacity="0" result="BackgroundImageFix"/>
<feColorMatrix in="SourceAlpha" type="matrix" values="0 0 0 0 0 0 0 0 0 0 0 0 0 0 0 0 0 0 127 0" result="hardAlpha"/>
<feOffset dy="1.52043"/>
<feGaussianBlur stdDeviation="1.52043"/>
<feComposite in2="hardAlpha" operator="out"/>
<feColorMatrix type="matrix" values="0 0 0 0 0 0 0 0 0 0 0 0 0 0 0 0 0 0 0.1 0"/>
<feBlend mode="normal" in2="BackgroundImageFix" result="effect1_dropShadow_717_2231"/>
<feBlend mode="normal" in="SourceGraphic" in2="effect1_dropShadow_717_2231" result="shape"/>
</filter>
<filter id="filter2_d_717_2231" x="123.48" y="1.25752" width="125.02" height="20.5258" filterUnits="userSpaceOnUse" color-interpolation-filters="sRGB">
<feFlood flood-opacity="0" result="BackgroundImageFix"/>
<feColorMatrix in="SourceAlpha" type="matrix" values="0 0 0 0 0 0 0 0 0 0 0 0 0 0 0 0 0 0 127 0" result="hardAlpha"/>
<feOffset dy="1.52043"/>
<feGaussianBlur stdDeviation="1.52043"/>
<feComposite in2="hardAlpha" operator="out"/>
<feColorMatrix type="matrix" values="0 0 0 0 0 0 0 0 0 0 0 0 0 0 0 0 0 0 0.1 0"/>
<feBlend mode="normal" in2="BackgroundImageFix" result="effect1_dropShadow_717_2231"/>
<feBlend mode="normal" in="SourceGraphic" in2="effect1_dropShadow_717_2231" result="shape"/>
</filter>
<linearGradient id="paint0_linear_717_2231" x1="136.556" y1="3.04878" x2="137.794" y2="20.0919" gradientUnits="userSpaceOnUse">
<stop stop-color="white" stop-opacity="0.4"/>
<stop offset="0.405687" stop-color="white" stop-opacity="0.01"/>
<stop offset="0.574372" stop-color="white" stop-opacity="0.01"/>
<stop offset="1" stop-color="white" stop-opacity="0.1"/>
</linearGradient>
<clipPath id="clip0_717_2231">
<rect x="1.5" width="247" height="20" rx="10" fill="white"/>
</clipPath>
</defs>
</svg>
