<svg width="50" height="50" viewBox="0 0 50 50" fill="none" xmlns="http://www.w3.org/2000/svg">
<g filter="url(#filter0_d_717_2409)">
<rect x="4.13139" y="0.158735" width="41.2565" height="41.2565" rx="8.27762" fill="#171717" stroke="#2D2D2D" stroke-width="0.262782"/>
<rect x="4.13139" y="0.158735" width="41.2565" height="41.2565" rx="8.27762" stroke="url(#paint0_linear_717_2409)" stroke-width="0.262782"/>
<rect x="45.3881" y="41.4161" width="41.2565" height="41.2565" rx="8.27762" transform="rotate(-180 45.3881 41.4161)" stroke="url(#paint1_linear_717_2409)" stroke-width="0.262782"/>
<mask id="mask0_717_2409" style="mask-type:alpha" maskUnits="userSpaceOnUse" x="4" y="0" width="42" height="42">
<rect x="45.5194" y="41.5475" width="41.5193" height="41.5193" rx="8.40901" transform="rotate(-180 45.5194 41.5475)" fill="#0A0C1E"/>
</mask>
<g mask="url(#mask0_717_2409)">
<g filter="url(#filter1_f_717_2409)">
<circle cx="7.70722" cy="34.3234" r="10.3798" fill="#B30B00"/>
</g>
</g>
<mask id="mask1_717_2409" style="mask-type:alpha" maskUnits="userSpaceOnUse" x="4" y="0" width="42" height="42">
<rect x="4.00012" y="0.0273438" width="41.5193" height="41.5193" rx="8.40901" fill="#0A0C1E"/>
</mask>
<g mask="url(#mask1_717_2409)">
<g filter="url(#filter2_f_717_2409)">
<circle cx="41.8123" cy="2.25139" r="10.3798" transform="rotate(-180 41.8123 2.25139)" fill="#B30B00"/>
</g>
</g>
<path d="M34.6512 23.8885C33.0668 22.1966 28.7493 22.9368 27.7062 23.0425C26.2274 21.5621 25.1843 19.8834 24.7618 19.249C25.29 17.6628 25.7125 15.8784 25.7125 14.1865C25.7125 12.6003 25.0787 11.0273 23.4019 11.0273C22.7681 11.0273 22.24 11.3446 21.9231 11.8733C21.1837 13.1422 21.5006 15.6669 22.6625 18.2973C22.0287 20.2007 20.9724 23.0425 19.7181 25.2499C18.0281 25.8844 14.3443 27.5631 14.0274 29.4665C13.9218 29.9952 14.133 30.6297 14.5555 30.9469C14.9781 31.3699 15.5062 31.4756 16.0343 31.4756C18.2393 31.4756 20.4575 28.4223 22.0419 25.6729C23.3094 25.2499 25.3032 24.6155 27.3101 24.2982C29.6207 26.4131 31.7333 26.7171 32.7895 26.7171C34.2683 26.7171 34.7965 26.0827 34.9945 25.554C35.2718 25.0517 35.0737 24.3115 34.6512 23.8885ZM33.1724 24.9459C33.0668 25.3689 32.5387 25.7919 31.588 25.5804C30.4261 25.2632 29.383 24.7344 28.538 23.9942C29.2774 23.8885 31.0599 23.677 32.3274 23.8885C32.7499 23.9942 33.2781 24.3115 33.1724 24.9459ZM22.9529 12.2963C23.0586 12.0848 23.2698 11.979 23.4811 11.979C24.0092 11.979 24.1149 12.6135 24.1149 13.1422C24.0092 14.4112 23.798 15.7726 23.3755 16.9358C22.5304 14.6226 22.6361 12.9307 22.9529 12.2963ZM22.8473 24.2057C23.3755 23.254 24.0092 21.4696 24.2205 20.8351C24.7486 21.7868 25.6993 22.8443 26.1218 23.3598C26.2274 23.2672 24.3261 23.677 22.8473 24.2057ZM19.2692 26.6378C17.8036 28.951 16.4304 30.4314 15.5854 30.4314C15.4798 30.4314 15.2685 30.4314 15.1629 30.3257C15.0573 30.1142 14.9516 29.9027 15.0573 29.6912C15.1629 28.8452 16.8529 27.6821 19.2692 26.6378Z" fill="#B30B00"/>
</g>
<defs>
<filter id="filter0_d_717_2409" x="0" y="0" width="50" height="50" filterUnits="userSpaceOnUse" color-interpolation-filters="sRGB">
<feFlood flood-opacity="0" result="BackgroundImageFix"/>
<feColorMatrix in="SourceAlpha" type="matrix" values="0 0 0 0 0 0 0 0 0 0 0 0 0 0 0 0 0 0 127 0" result="hardAlpha"/>
<feOffset dy="4"/>
<feGaussianBlur stdDeviation="2"/>
<feComposite in2="hardAlpha" operator="out"/>
<feColorMatrix type="matrix" values="0 0 0 0 0 0 0 0 0 0 0 0 0 0 0 0 0 0 0.25 0"/>
<feBlend mode="normal" in2="BackgroundImageFix" result="effect1_dropShadow_717_2409"/>
<feBlend mode="normal" in="SourceGraphic" in2="effect1_dropShadow_717_2409" result="shape"/>
</filter>
<filter id="filter1_f_717_2409" x="-30.0019" y="-3.38569" width="75.4182" height="75.4182" filterUnits="userSpaceOnUse" color-interpolation-filters="sRGB">
<feFlood flood-opacity="0" result="BackgroundImageFix"/>
<feBlend mode="normal" in="SourceGraphic" in2="BackgroundImageFix" result="shape"/>
<feGaussianBlur stdDeviation="13.6646" result="effect1_foregroundBlur_717_2409"/>
</filter>
<filter id="filter2_f_717_2409" x="6.73101" y="-32.8299" width="70.1626" height="70.1626" filterUnits="userSpaceOnUse" color-interpolation-filters="sRGB">
<feFlood flood-opacity="0" result="BackgroundImageFix"/>
<feBlend mode="normal" in="SourceGraphic" in2="BackgroundImageFix" result="shape"/>
<feGaussianBlur stdDeviation="12.3507" result="effect1_foregroundBlur_717_2409"/>
</filter>
<linearGradient id="paint0_linear_717_2409" x1="41.0708" y1="1.51018" x2="32.9152" y2="14.8557" gradientUnits="userSpaceOnUse">
<stop stop-color="#B30B00"/>
<stop offset="1" stop-opacity="0"/>
</linearGradient>
<linearGradient id="paint1_linear_717_2409" x1="82.5904" y1="43.0303" x2="74.4348" y2="56.3758" gradientUnits="userSpaceOnUse">
<stop stop-color="#B30B00"/>
<stop offset="1" stop-opacity="0"/>
</linearGradient>
</defs>
</svg>
