<svg width="48" height="48" viewBox="0 0 48 48" fill="none" xmlns="http://www.w3.org/2000/svg">
<g filter="url(#filter0_d_717_2475)">
<rect x="4.12625" y="0.126619" width="39.6432" height="39.6432" rx="7.95392" fill="#171717" stroke="#2D2D2D" stroke-width="0.252505"/>
<rect x="4.12625" y="0.126619" width="39.6432" height="39.6432" rx="7.95392" stroke="url(#paint0_linear_717_2475)" stroke-width="0.252505"/>
<rect x="43.7695" y="39.7694" width="39.6432" height="39.6432" rx="7.95392" transform="rotate(-180 43.7695 39.7694)" stroke="url(#paint1_linear_717_2475)" stroke-width="0.252505"/>
<mask id="mask0_717_2475" style="mask-type:alpha" maskUnits="userSpaceOnUse" x="4" y="0" width="40" height="40">
<rect x="43.8958" y="39.8956" width="39.8957" height="39.8957" rx="8.08017" transform="rotate(-180 43.8958 39.8956)" fill="#0A0C1E"/>
</mask>
<g mask="url(#mask0_717_2475)">
<g filter="url(#filter1_f_717_2475)">
<circle cx="7.56205" cy="37.7586" r="9.97392" fill="white"/>
</g>
</g>
<mask id="mask1_717_2475" style="mask-type:alpha" maskUnits="userSpaceOnUse" x="3" y="0" width="41" height="40">
<rect x="3.99988" width="39.8957" height="39.8957" rx="8.08017" fill="#0A0C1E"/>
</mask>
<g mask="url(#mask1_717_2475)">
<g filter="url(#filter2_f_717_2475)">
<circle cx="40.3335" cy="5.68111" r="9.97392" transform="rotate(-180 40.3335 5.68111)" fill="white"/>
</g>
</g>
<path d="M23.4 14.9784C23.4 14.647 23.6686 14.3784 24 14.3784C24.3314 14.3784 24.6 14.647 24.6 14.9784V25.7784C24.6 26.1098 24.3314 26.3784 24 26.3784C23.6686 26.3784 23.4 26.1098 23.4 25.7784V14.9784Z" fill="#D9D9D9" fill-opacity="0.94"/>
<path d="M29.4 19.7784C29.7314 19.7784 30 20.047 30 20.3784C30 20.7098 29.7314 20.9784 29.4 20.9784L18.6 20.9784C18.2686 20.9784 18 20.7098 18 20.3784C18 20.047 18.2686 19.7784 18.6 19.7784L29.4 19.7784Z" fill="#D9D9D9" fill-opacity="0.94"/>
</g>
<defs>
<filter id="filter0_d_717_2475" x="0" y="0" width="50" height="50" filterUnits="userSpaceOnUse" color-interpolation-filters="sRGB">
<feFlood flood-opacity="0" result="BackgroundImageFix"/>
<feColorMatrix in="SourceAlpha" type="matrix" values="0 0 0 0 0 0 0 0 0 0 0 0 0 0 0 0 0 0 127 0" result="hardAlpha"/>
<feOffset dy="4"/>
<feGaussianBlur stdDeviation="2"/>
<feComposite in2="hardAlpha" operator="out"/>
<feColorMatrix type="matrix" values="0 0 0 0 0 0 0 0 0 0 0 0 0 0 0 0 0 0 0.25 0"/>
<feBlend mode="normal" in2="BackgroundImageFix" result="effect1_dropShadow_717_2475"/>
<feBlend mode="normal" in="SourceGraphic" in2="effect1_dropShadow_717_2475" result="shape"/>
</filter>
<filter id="filter1_f_717_2475" x="-28.6724" y="1.52411" width="72.4689" height="72.469" filterUnits="userSpaceOnUse" color-interpolation-filters="sRGB">
<feFlood flood-opacity="0" result="BackgroundImageFix"/>
<feBlend mode="normal" in="SourceGraphic" in2="BackgroundImageFix" result="shape"/>
<feGaussianBlur stdDeviation="13.1303" result="effect1_foregroundBlur_717_2475"/>
</filter>
<filter id="filter2_f_717_2475" x="4.09906" y="-30.5534" width="72.4689" height="72.469" filterUnits="userSpaceOnUse" color-interpolation-filters="sRGB">
<feFlood flood-opacity="0" result="BackgroundImageFix"/>
<feBlend mode="normal" in="SourceGraphic" in2="BackgroundImageFix" result="shape"/>
<feGaussianBlur stdDeviation="13.1303" result="effect1_foregroundBlur_717_2475"/>
</filter>
<linearGradient id="paint0_linear_717_2475" x1="39.6211" y1="1.42521" x2="31.7845" y2="14.2488" gradientUnits="userSpaceOnUse">
<stop stop-color="white"/>
<stop offset="1" stop-opacity="0"/>
</linearGradient>
<linearGradient id="paint1_linear_717_2475" x1="79.5169" y1="41.3205" x2="71.6802" y2="54.1441" gradientUnits="userSpaceOnUse">
<stop stop-color="white"/>
<stop offset="1" stop-opacity="0"/>
</linearGradient>
</defs>
</svg>
