<svg width="50" height="50" viewBox="0 0 50 50" fill="none" xmlns="http://www.w3.org/2000/svg">
<g filter="url(#filter0_d_717_2513)">
<rect x="4.13139" y="0.557172" width="41.2565" height="41.2565" rx="8.27762" fill="#171717" stroke="#2D2D2D" stroke-width="0.262782"/>
<rect x="4.13139" y="0.557172" width="41.2565" height="41.2565" rx="8.27762" stroke="url(#paint0_linear_717_2513)" stroke-width="0.262782"/>
<rect x="45.3881" y="41.815" width="41.2565" height="41.2565" rx="8.27762" transform="rotate(-180 45.3881 41.815)" stroke="url(#paint1_linear_717_2513)" stroke-width="0.262782"/>
<mask id="mask0_717_2513" style="mask-type:alpha" maskUnits="userSpaceOnUse" x="4" y="0" width="42" height="42">
<rect x="45.5194" y="41.9465" width="41.5193" height="41.5193" rx="8.40901" transform="rotate(-180 45.5194 41.9465)" fill="#0A0C1E"/>
</mask>
<g mask="url(#mask0_717_2513)">
<g filter="url(#filter1_f_717_2513)">
<circle cx="7.70722" cy="39.7224" r="10.3798" fill="#32A8FF"/>
</g>
</g>
<mask id="mask1_717_2513" style="mask-type:alpha" maskUnits="userSpaceOnUse" x="4" y="0" width="42" height="42">
<rect x="4.00012" y="0.426147" width="41.5193" height="41.5193" rx="8.40901" fill="#0A0C1E"/>
</mask>
<g mask="url(#mask1_717_2513)">
<g filter="url(#filter2_f_717_2513)">
<circle cx="41.8123" cy="2.65032" r="10.3798" transform="rotate(-180 41.8123 2.65032)" fill="#32A8FF"/>
</g>
</g>
<path d="M14.9991 28.7233V14.6585C14.9991 14.5628 15.0406 14.5082 15.1373 14.5082C15.3721 14.5082 15.5932 14.5082 15.9109 14.4945C16.2425 14.4808 16.5878 14.4808 16.9608 14.4672C17.3338 14.4535 17.7345 14.4535 18.1627 14.4398C18.591 14.4261 19.0054 14.4261 19.4198 14.4261C20.5526 14.4261 21.492 14.5628 22.2657 14.8499C22.9564 15.0822 23.5919 15.4649 24.1168 15.9707C24.5589 16.4081 24.9043 16.9411 25.1253 17.5289C25.3325 18.103 25.443 18.6907 25.443 19.3058C25.443 20.4813 25.1667 21.4517 24.6142 22.2172C24.0616 22.9826 23.288 23.5567 22.39 23.8847C21.4506 24.2264 20.4145 24.3494 19.2817 24.3494C18.9501 24.3494 18.7291 24.3494 18.591 24.3358C18.4528 24.3221 18.2594 24.3221 17.9969 24.3221V28.7097C18.0107 28.8053 17.9417 28.8874 17.845 28.901C17.8312 28.901 17.8173 28.901 17.7897 28.901H15.1649C15.0544 28.901 14.9991 28.8463 14.9991 28.7233ZM18.0107 17.1462V21.7388C18.2042 21.7524 18.3837 21.7661 18.5495 21.7661H19.2817C19.8205 21.7661 20.3592 21.6841 20.8704 21.5201C21.3125 21.3971 21.6993 21.1373 22.0032 20.7956C22.2933 20.4539 22.4314 19.9892 22.4314 19.3878C22.4453 18.9641 22.3347 18.5403 22.1137 18.1713C21.8789 17.8159 21.5473 17.5426 21.1467 17.3922C20.6355 17.1872 20.0829 17.1052 19.5165 17.1188C19.1574 17.1188 18.8396 17.1188 18.5771 17.1325C18.3009 17.1188 18.1074 17.1325 18.0107 17.1462Z" fill="#31A8FF"/>
<path d="M33.9188 20.9932C33.5122 20.7748 33.0784 20.6246 32.6175 20.529C32.1159 20.4198 31.6144 20.3515 31.0993 20.3515C30.8281 20.3379 30.5435 20.3788 30.2859 20.4471C30.1097 20.4881 29.9606 20.5836 29.8657 20.7202C29.7979 20.8294 29.7572 20.9659 29.7572 21.0888C29.7572 21.2117 29.8115 21.3346 29.8928 21.4438C30.0148 21.594 30.1775 21.7169 30.3537 21.8125C30.6655 21.9763 30.9908 22.1265 31.3161 22.2631C32.0482 22.5088 32.7531 22.8502 33.4037 23.2598C33.8511 23.5465 34.2171 23.9288 34.4746 24.3931C34.6915 24.83 34.8 25.3079 34.7864 25.7994C34.8 26.4411 34.6102 27.0829 34.2577 27.6154C33.8782 28.1615 33.3495 28.5848 32.7395 28.8306C32.0753 29.1173 31.2619 29.2675 30.2859 29.2675C29.6624 29.2675 29.0523 29.2129 28.4423 29.09C27.9679 29.0081 27.4934 28.8579 27.0597 28.6531C26.9648 28.5985 26.897 28.5029 26.9105 28.3937V26.0179C26.9105 25.9769 26.9241 25.9223 26.9648 25.895C27.0054 25.8677 27.0461 25.8813 27.0868 25.9086C27.6154 26.2227 28.1712 26.4411 28.7677 26.5777C29.2828 26.7142 29.825 26.7825 30.3672 26.7825C30.8824 26.7825 31.2484 26.7142 31.4924 26.5913C31.7093 26.4958 31.8584 26.2636 31.8584 26.0179C31.8584 25.8267 31.7499 25.6492 31.533 25.4717C31.3161 25.2942 30.8688 25.0894 30.2046 24.83C29.5132 24.5842 28.8761 24.2565 28.2797 23.8469C27.8594 23.5465 27.507 23.1506 27.2494 22.6863C27.0325 22.2494 26.9241 21.7715 26.9377 21.2936C26.9377 20.7065 27.1003 20.1467 27.3985 19.6415C27.7374 19.0954 28.239 18.6584 28.8219 18.3854C29.459 18.0577 30.2588 17.9075 31.2213 17.9075C31.777 17.9075 32.3464 17.9484 32.9022 18.0304C33.3088 18.085 33.702 18.1942 34.068 18.3444C34.1222 18.358 34.1764 18.4127 34.2035 18.4673C34.2171 18.5219 34.2306 18.5765 34.2306 18.6311V20.8567C34.2306 20.9113 34.2035 20.9659 34.1628 20.9932C34.0408 21.0206 33.9731 21.0206 33.9188 20.9932Z" fill="#31A8FF"/>
</g>
<defs>
<filter id="filter0_d_717_2513" x="0" y="0" width="50" height="50" filterUnits="userSpaceOnUse" color-interpolation-filters="sRGB">
<feFlood flood-opacity="0" result="BackgroundImageFix"/>
<feColorMatrix in="SourceAlpha" type="matrix" values="0 0 0 0 0 0 0 0 0 0 0 0 0 0 0 0 0 0 127 0" result="hardAlpha"/>
<feOffset dy="4"/>
<feGaussianBlur stdDeviation="2"/>
<feComposite in2="hardAlpha" operator="out"/>
<feColorMatrix type="matrix" values="0 0 0 0 0 0 0 0 0 0 0 0 0 0 0 0 0 0 0.25 0"/>
<feBlend mode="normal" in2="BackgroundImageFix" result="effect1_dropShadow_717_2513"/>
<feBlend mode="normal" in="SourceGraphic" in2="effect1_dropShadow_717_2513" result="shape"/>
</filter>
<filter id="filter1_f_717_2513" x="-30.0019" y="2.01324" width="75.4182" height="75.4182" filterUnits="userSpaceOnUse" color-interpolation-filters="sRGB">
<feFlood flood-opacity="0" result="BackgroundImageFix"/>
<feBlend mode="normal" in="SourceGraphic" in2="BackgroundImageFix" result="shape"/>
<feGaussianBlur stdDeviation="13.6646" result="effect1_foregroundBlur_717_2513"/>
</filter>
<filter id="filter2_f_717_2513" x="6.73101" y="-32.431" width="70.1626" height="70.1626" filterUnits="userSpaceOnUse" color-interpolation-filters="sRGB">
<feFlood flood-opacity="0" result="BackgroundImageFix"/>
<feBlend mode="normal" in="SourceGraphic" in2="BackgroundImageFix" result="shape"/>
<feGaussianBlur stdDeviation="12.3507" result="effect1_foregroundBlur_717_2513"/>
</filter>
<linearGradient id="paint0_linear_717_2513" x1="41.0708" y1="1.90862" x2="32.9152" y2="15.2541" gradientUnits="userSpaceOnUse">
<stop stop-color="#31A8FF"/>
<stop offset="1" stop-opacity="0"/>
</linearGradient>
<linearGradient id="paint1_linear_717_2513" x1="82.5904" y1="43.4292" x2="74.4348" y2="56.7747" gradientUnits="userSpaceOnUse">
<stop stop-color="#31A8FF"/>
<stop offset="1" stop-opacity="0"/>
</linearGradient>
</defs>
</svg>
